<svg xmlns="http://www.w3.org/2000/svg" xmlns:xlink="http://www.w3.org/1999/xlink" version="1.1" height="102.00000000000001" width="233.71038965968904" viewBox="0 0 233.71038965968904 102.00000000000001"><g id="SvgjsG1010" rel="mainfill" name="main_text" xmlns:name="mainText_mainfill" fill="#ffffff" transform="translate(110.6603789785367,18.39999961853028)"><path d="M20.05 48.15 l-4.95 1.55 l0 -13.2 l-7.95 2.8 l0 7.1 l-1.95 3.6 l-5.2 0 l0 -1.05 l2.2 -4.05 l0 -22.7 l-2.2 -4.15 l0 -0.95 l5.2 0 l1.95 3.65 l0 13.35 l7.95 -2.75 l0 -14.5 l4.95 -1.65 l0 32.95 l0 0 z M44.1 18.95 l0 27.45 l-1.95 3.6 l-9.9 0 l-6 -1.95 l0 -25.9 l-2.2 -4.1 l0 -1 l14.35 0 z M39.15 45.25 l0 -23.25 l-7.95 0 l0 23.25 l7.95 0 z M70 19.1 l4.95 -1.65 l0 30.3 l-4.95 1.85 l0 -19.85 l-7.5 9.9 l-7.25 -9.7 l0 16.45 l-1.95 3.6 l-5.2 0 l0 -1.05 l2.2 -4.05 l0 -22.75 l-2.2 -4.1 l0 -1 l5.2 0 l1.95 4 l7.25 10.4 l7.5 -10.65 l0 -1.7 l0 0 z M99 22.3 l-4.95 1.6 l0 -1.9 l-7.95 0 l0 12.1 l6.35 -2.2 l0 5.25 l-6.35 2.2 l0 5.9 l7.95 0 l0 -2.4 l4.95 -1.65 l0 5.2 l-1.95 3.6 l-18.1 0 l0 -1.05 l2.2 -4.05 l0 -22.75 l-2.2 -4.1 l0 -1 l14.35 0 l5.7 -1.8 l0 7.05 l0 0 z M123.05 22.25 l-4.95 1.6 l0 -1.8 l-7.95 0 l0 8.4 l7.25 -2.5 l5.5 1.9 l-4.2 16.4 l-2.05 3.75 l-13.65 0 l0 -1.05 l2.2 -4.05 l0 -4.1 l4.95 -1.65 l0 6.15 l3.75 0 l3 -11.85 l-5.85 2.1 l-5.85 -1.95 l0 -11.4 l-2.2 -4.15 l0 -0.95 l14.4 0 l5.65 -1.9 l0 7.05 l0 0 z"></path></g><defs id="SvgjsDefs1009"></defs><g id="SvgjsG1011" rel="mainfill" name="symbol" xmlns:name="symbol_mainfill" fill="#ffffff" transform="translate(-8.830189044714258,-5.660377454351283) scale(1.1320754908702566)"><g xmlns="http://www.w3.org/2000/svg"><g><path d="M90.8,42H51.5V6.5C51.5,5.6,50.8,5,50,5H9.2C8.4,5,7.8,5.6,7.8,6.5v87.1c0,0.8,0.7,1.5,1.5,1.5H50h40.8    c0.8,0,1.5-0.7,1.5-1.5V43.4C92.2,42.6,91.6,42,90.8,42z M10.7,7.9h37.9v35.5v48.6h-6.4v-9.8v-1.5l0,0c0-0.8-0.7-1.5-1.5-1.5H18.6    c-0.8,0-1.5,0.7-1.5,1.5l0,0v1.5v9.8h-6.4V7.9z M28.2,82.7v9.4H20v-9.4c0-0.3,0.2-0.5,0.5-0.5h7.2C27.9,82.3,28.2,82.5,28.2,82.7z     M31.5,82.3h7.2c0.3,0,0.5,0.2,0.5,0.5v9.4h-8.1v-9.4C31.1,82.5,31.3,82.3,31.5,82.3z M89.3,92.1H51.5V44.9h37.9V92.1z"></path><path d="M19,20.8h5c1.1,0,1.9-0.9,1.9-1.9v-2.1c0-1.1-0.9-1.9-1.9-1.9h-5c-1.1,0-1.9,0.9-1.9,1.9v2.1C17.1,19.9,18,20.8,19,20.8z"></path><path d="M35.2,20.8h5c1.1,0,1.9-0.9,1.9-1.9v-2.1c0-1.1-0.9-1.9-1.9-1.9h-5c-1.1,0-1.9,0.9-1.9,1.9v2.1    C33.2,19.9,34.1,20.8,35.2,20.8z"></path><path d="M19,33.7h5c1.1,0,1.9-0.9,1.9-1.9v-2.1c0-1.1-0.9-1.9-1.9-1.9h-5c-1.1,0-1.9,0.9-1.9,1.9v2.1C17.1,32.8,18,33.7,19,33.7z"></path><path d="M35.2,33.7h5c1.1,0,1.9-0.9,1.9-1.9v-2.1c0-1.1-0.9-1.9-1.9-1.9h-5c-1.1,0-1.9,0.9-1.9,1.9v2.1    C33.2,32.8,34.1,33.7,35.2,33.7z"></path><path d="M19,46.6h5c1.1,0,1.9-0.9,1.9-1.9v-2.1c0-1.1-0.9-1.9-1.9-1.9h-5c-1.1,0-1.9,0.9-1.9,1.9v2.1C17.1,45.7,18,46.6,19,46.6z"></path><path d="M35.2,46.6h5c1.1,0,1.9-0.9,1.9-1.9v-2.1c0-1.1-0.9-1.9-1.9-1.9h-5c-1.1,0-1.9,0.9-1.9,1.9v2.1    C33.2,45.7,34.1,46.6,35.2,46.6z"></path><path d="M19,59.5h5c1.1,0,1.9-0.9,1.9-1.9v-2.1c0-1.1-0.9-1.9-1.9-1.9h-5c-1.1,0-1.9,0.9-1.9,1.9v2.1C17.1,58.6,18,59.5,19,59.5z"></path><path d="M35.2,59.5h5c1.1,0,1.9-0.9,1.9-1.9v-2.1c0-1.1-0.9-1.9-1.9-1.9h-5c-1.1,0-1.9,0.9-1.9,1.9v2.1    C33.2,58.6,34.1,59.5,35.2,59.5z"></path><path d="M19,72.4h5c1.1,0,1.9-0.9,1.9-1.9v-2.1c0-1.1-0.9-1.9-1.9-1.9h-5c-1.1,0-1.9,0.9-1.9,1.9v2.1C17.1,71.6,18,72.4,19,72.4z"></path><path d="M35.2,72.4h5c1.1,0,1.9-0.9,1.9-1.9v-2.1c0-1.1-0.9-1.9-1.9-1.9h-5c-1.1,0-1.9,0.9-1.9,1.9v2.1    C33.2,71.6,34.1,72.4,35.2,72.4z"></path><path d="M59.8,59.5h5c1.1,0,1.9-0.9,1.9-1.9v-2.1c0-1.1-0.9-1.9-1.9-1.9h-5c-1.1,0-1.9,0.9-1.9,1.9v2.1    C57.9,58.6,58.8,59.5,59.8,59.5z"></path><path d="M76,59.5h5c1.1,0,1.9-0.9,1.9-1.9v-2.1c0-1.1-0.9-1.9-1.9-1.9h-5c-1.1,0-1.9,0.9-1.9,1.9v2.1C74,58.6,74.9,59.5,76,59.5z"></path><path d="M59.8,72.4h5c1.1,0,1.9-0.9,1.9-1.9v-2.1c0-1.1-0.9-1.9-1.9-1.9h-5c-1.1,0-1.9,0.9-1.9,1.9v2.1    C57.9,71.6,58.8,72.4,59.8,72.4z"></path><path d="M76,72.4h5c1.1,0,1.9-0.9,1.9-1.9v-2.1c0-1.1-0.9-1.9-1.9-1.9h-5c-1.1,0-1.9,0.9-1.9,1.9v2.1C74,71.6,74.9,72.4,76,72.4z"></path><path d="M59.8,85.3h5c1.1,0,1.9-0.9,1.9-1.9v-2.1c0-1.1-0.9-1.9-1.9-1.9h-5c-1.1,0-1.9,0.9-1.9,1.9v2.1    C57.9,84.5,58.8,85.3,59.8,85.3z"></path><path d="M76,85.3h5c1.1,0,1.9-0.9,1.9-1.9v-2.1c0-1.1-0.9-1.9-1.9-1.9h-5c-1.1,0-1.9,0.9-1.9,1.9v2.1C74,84.5,74.9,85.3,76,85.3z"></path></g></g></g></svg>