<svg width="575" height="128" viewBox="0 0 575 128" xmlns="http://www.w3.org/2000/svg"><g fill="none" fill-rule="evenodd"><path fill="#353b41" d="M0 0h575v128H0z"/><path d="M180.788 46.648c-1.133-1.813-2.72-3.15-4.76-4.012-1.224-.5-2.46-.76-3.706-.782-1.247-.023-2.437.18-3.57.612-1.133.43-2.176 1.043-3.128 1.836-.952.793-1.723 1.757-2.312 2.89-.408.77-.737 1.69-.986 2.754-.25 1.065-.34 2.108-.272 3.128s.33 1.95.782 2.788c.453.84 1.156 1.462 2.108 1.87.952.363 1.88.408 2.788.136.907-.272 1.655-.77 2.244-1.496.363-.5.623-1.077.782-1.734.16-.657.193-1.303.102-1.938 1.088-.363 1.983-.295 2.686.204.703.5 1.1 1.337 1.19 2.516.09.816-.023 1.575-.34 2.278-.317.703-.748 1.337-1.292 1.904s-1.167 1.043-1.87 1.428c-.703.385-1.394.67-2.074.85-.907.227-1.86.25-2.856.068-.997-.18-1.904-.544-2.72-1.088-.997-.635-1.78-1.428-2.346-2.38-.567-.952-.975-1.995-1.224-3.128-.25-1.133-.35-2.278-.306-3.434.045-1.156.18-2.255.408-3.298.453-1.904 1.247-3.593 2.38-5.066 1.133-1.473 2.482-2.675 4.046-3.604 1.564-.93 3.275-1.553 5.134-1.87 1.86-.317 3.74-.272 5.644.136 1.405.272 2.743.748 4.012 1.428 1.27.68 2.425 1.473 3.468 2.38l8.024-4.012 1.088 2.04c-.816.18-1.52.555-2.108 1.122-.59.567-1.19 1.383-1.802 2.448-.612 1.065-1.247 2.357-1.904 3.876-.657 1.52-1.462 3.32-2.414 5.406-1.133 2.493-2.255 4.975-3.366 7.446-1.11 2.47-2.255 4.93-3.434 7.378l5.372 1.428c.227-.544.453-1.065.68-1.564l.68-1.496c1.224-2.63 2.73-5.45 4.522-8.466 1.79-3.015 3.808-5.86 6.052-8.534 2.244-2.675 4.726-5.02 7.446-7.038 2.72-2.017 5.62-3.343 8.704-3.978l.816 2.176c-2.267 1.043-4.363 2.47-6.29 4.284-1.927 1.813-3.706 3.83-5.338 6.052-1.632 2.22-3.117 4.522-4.454 6.902-1.337 2.38-2.55 4.613-3.638 6.698-.363.635-.827 1.507-1.394 2.618-.567 1.11-1.167 2.37-1.802 3.774 1.587.227 3.026.33 4.318.306 1.292-.023 2.39-.35 3.298-.986.227.227.42.544.578.952.16.408.33.77.51 1.088-1.587.77-3.207 1.235-4.862 1.394-1.655.16-3.343.193-5.066.102-.68 1.723-1.28 3.468-1.802 5.236-.52 1.768-.793 3.4-.816 4.896-.023 1.496.26 2.788.85 3.876s1.632 1.79 3.128 2.108c0 .725-.34 1.27-1.02 1.632-.68.363-1.462.465-2.346.306-.884-.16-1.79-.6-2.72-1.326-.93-.725-1.643-1.79-2.142-3.196-.77-2.22-1.043-4.567-.816-7.038.227-2.47.748-4.885 1.564-7.242-1.043-.18-2.05-.35-3.026-.51-.975-.16-1.96-.283-2.958-.374-.227.408-.442.816-.646 1.224-.204.408-.42.816-.646 1.224-.77 1.45-1.587 2.88-2.448 4.284-.86 1.405-1.802 2.754-2.822 4.046-1.02 1.292-2.12 2.505-3.298 3.638-1.18 1.133-2.493 2.13-3.944 2.992-1.18.68-2.573 1.28-4.182 1.802-1.61.52-3.23.793-4.862.816-1.632.023-3.162-.272-4.59-.884s-2.55-1.69-3.366-3.23c-.77-1.45-1.19-3.026-1.258-4.726-.068-1.7.136-3.39.612-5.066.476-1.677 1.2-3.275 2.176-4.794.975-1.52 2.12-2.8 3.434-3.842 1.315-1.043 2.754-1.802 4.318-2.278 1.564-.476 3.185-.533 4.862-.17.77.18 1.53.6 2.278 1.258.748.657 1.167 1.37 1.258 2.142.317-.952.782-1.71 1.394-2.278.612-.567 1.315-.975 2.108-1.224.793-.25 1.677-.385 2.652-.408.975-.023 1.983.034 3.026.17 1.088-2.04 2.12-4.07 3.094-6.086.975-2.017 1.95-3.978 2.924-5.882.975-1.904 1.983-3.74 3.026-5.508 1.043-1.768 2.176-3.4 3.4-4.896l-4.624 2.516zm-17.136 27.54c-.453-.59-1.043-1.02-1.768-1.292-.725-.272-1.496-.442-2.312-.51-.816-.068-1.62-.045-2.414.068-.793.113-1.462.26-2.006.442-1.768.544-3.377 1.7-4.828 3.468-.635.816-1.167 1.86-1.598 3.128-.43 1.27-.67 2.54-.714 3.808-.045 1.27.16 2.437.612 3.502.453 1.065 1.247 1.78 2.38 2.142 1.904.635 3.774.5 5.61-.408 1.836-.907 3.57-2.244 5.202-4.012 1.632-1.768 3.162-3.808 4.59-6.12 1.428-2.312 2.71-4.533 3.842-6.664-1.18.18-2.312.453-3.4.816-1.088.363-2.153.907-3.196 1.632zm56.236-7.548l.884 1.836c-1.224.77-2.46 1.36-3.706 1.768-1.247.408-2.46.657-3.638.748-.09.363-.215.703-.374 1.02-.16.317-.306.657-.442 1.02-.816 1.723-1.825 3.423-3.026 5.1-1.2 1.677-2.505 3.105-3.91 4.284-1.405 1.18-2.845 2.006-4.318 2.482-1.473.476-2.913.397-4.318-.238-1.45-.68-2.323-2.063-2.618-4.148-.295-2.085.26-4.533 1.666-7.344 1.315-2.675 2.697-4.93 4.148-6.766 1.45-1.836 2.89-3.275 4.318-4.318 1.428-1.043 2.788-1.7 4.08-1.972 1.292-.272 2.46-.18 3.502.272.453.227.884.578 1.292 1.054.408.476.612 1.01.612 1.598-.68-.544-1.485-.85-2.414-.918-.93-.068-1.915.227-2.958.884-1.043.657-2.13 1.7-3.264 3.128-1.133 1.428-2.267 3.366-3.4 5.814-.997 2.085-1.507 3.887-1.53 5.406-.023 1.52.442 2.527 1.394 3.026.453.272 1.03.227 1.734-.136.703-.363 1.44-.94 2.21-1.734.77-.793 1.53-1.745 2.278-2.856.748-1.11 1.394-2.255 1.938-3.434l.612-1.496c-.952-.408-1.61-1.043-1.972-1.904-.363-.86-.487-1.71-.374-2.55.113-.84.453-1.587 1.02-2.244.567-.657 1.35-.986 2.346-.986 1.224 0 2.05.544 2.482 1.632.43 1.088.442 2.425.034 4.012 1.043-.136 2.108-.385 3.196-.748s1.927-.793 2.516-1.292zm23.324 5.916l1.564 1.632c-1.587 3.49-3.253 6.2-4.998 8.126-1.745 1.927-3.638 2.89-5.678 2.89-1.043 0-1.87-.25-2.482-.748-.612-.5-.907-1.337-.884-2.516.023-1.18.453-2.73 1.292-4.658.84-1.927 2.187-4.295 4.046-7.106.997-1.45 1.7-2.663 2.108-3.638.408-.975.363-1.462-.136-1.462-.272 0-.657.193-1.156.578-.5.385-1.054.895-1.666 1.53-.612.635-1.235 1.383-1.87 2.244-.635.86-1.224 1.79-1.768 2.788-.544.997-1.167 2.21-1.87 3.638-.703 1.428-1.37 2.822-2.006 4.182-.725 1.587-1.45 3.24-2.176 4.964h-5.576c1.043-2.176 2.017-4.216 2.924-6.12.408-.816.805-1.643 1.19-2.482.385-.84.77-1.655 1.156-2.448l1.054-2.176c.317-.657.59-1.19.816-1.598 1.677-3.264 2.04-4.896 1.088-4.896-.453 0-1.088.5-1.904 1.496-.816.997-1.734 2.335-2.754 4.012-1.02 1.677-2.108 3.593-3.264 5.746-1.156 2.153-2.3 4.386-3.434 6.698v-.068L215.944 85h-5.576l11.356-24.004h5.576l-1.632 3.4c1.18-1.224 2.312-2.097 3.4-2.618 1.088-.52 2.244-.782 3.468-.782.816 0 1.45.306 1.904.918.453.612.635 1.417.544 2.414 2.448-2.22 4.58-3.332 6.392-3.332.59 0 1.1.16 1.53.476.43.317.737.76.918 1.326.18.567.215 1.235.102 2.006-.113.77-.42 1.587-.918 2.448-1.632 2.9-2.947 5.247-3.944 7.038-.997 1.79-1.734 3.185-2.21 4.182-.476.997-.725 1.666-.748 2.006-.023.34.102.51.374.51.907 0 1.96-.77 3.162-2.312 1.2-1.54 2.39-3.58 3.57-6.12zm18.632 0l1.564 1.632c-1.224 2.13-2.652 4.023-4.284 5.678-1.632 1.655-3.332 2.98-5.1 3.978-1.768.997-3.513 1.598-5.236 1.802-1.723.204-3.264-.125-4.624-.986-.725-.453-1.303-1.088-1.734-1.904-.43-.816-.69-1.78-.782-2.89-.09-1.11 0-2.312.272-3.604.272-1.292.748-2.64 1.428-4.046 1.315-2.675 2.73-4.873 4.25-6.596 1.52-1.723 3.003-3.037 4.454-3.944 1.45-.907 2.81-1.45 4.08-1.632 1.27-.18 2.312-.068 3.128.34.68.363 1.213.895 1.598 1.598.385.703.6 1.507.646 2.414.045.907-.08 1.893-.374 2.958-.295 1.065-.805 2.12-1.53 3.162-.997 1.45-2.097 2.618-3.298 3.502-1.2.884-2.37 1.473-3.502 1.768-1.133.295-2.142.317-3.026.068-.884-.25-1.53-.782-1.938-1.598-.408 1.496-.555 2.822-.442 3.978.113 1.156.623 1.938 1.53 2.346.725.363 1.677.42 2.856.17 1.18-.25 2.38-.748 3.604-1.496 1.224-.748 2.414-1.7 3.57-2.856 1.156-1.156 2.12-2.437 2.89-3.842zm-5.916-4.148c1.18-1.27 1.95-2.46 2.312-3.57.363-1.11.363-1.78 0-2.006-.544-.363-1.224-.363-2.04 0-.816.363-1.655.952-2.516 1.768-.86.816-1.7 1.79-2.516 2.924-.816 1.133-1.496 2.29-2.04 3.468-.227.635-.16 1.03.204 1.19.363.16.884.113 1.564-.136.68-.25 1.462-.68 2.346-1.292.884-.612 1.78-1.394 2.686-2.346zm53.38-15.368c.952.272 1.87.34 2.754.204.884-.136 1.723-.42 2.516-.85.793-.43 1.485-1.01 2.074-1.734.59-.725 1.043-1.54 1.36-2.448.5-1.45.567-2.8.204-4.046-.363-1.247-1.27-2.187-2.72-2.822-.816-.363-1.666-.5-2.55-.408-.884.09-1.734.34-2.55.748-.816.408-1.587.952-2.312 1.632-.725.68-1.315 1.405-1.768 2.176-1.36 2.176-1.88 4.284-1.564 6.324.317 2.04 1.088 4.08 2.312 6.12 1.27 2.13 2.346 4.318 3.23 6.562.884 2.244 1.45 4.5 1.7 6.766.25 2.267.113 4.545-.408 6.834-.52 2.29-1.598 4.522-3.23 6.698-1.043 1.405-2.233 2.595-3.57 3.57-1.337.975-2.777 1.745-4.318 2.312-1.54.567-3.14.918-4.794 1.054-1.655.136-3.32.023-4.998-.34-3.037-.59-5.43-1.927-7.174-4.012-1.745-2.085-2.845-4.454-3.298-7.106-.453-2.652-.283-5.35.51-8.092.793-2.743 2.21-5.09 4.25-7.038 1.27-1.18 2.64-2.108 4.114-2.788 1.473-.68 2.867-.997 4.182-.952 1.315 0 2.437.215 3.366.646.93.43 1.643.895 2.142 1.394 1.45 1.45 2.074 2.54 1.87 3.264-.204.725-.986.84-2.346.34-1.405-.5-2.947-.5-4.624 0-1.677.5-3.31 1.405-4.896 2.72-.907.77-1.757 1.7-2.55 2.788-.793 1.088-1.44 2.335-1.938 3.74-.5 1.405-.748 2.913-.748 4.522 0 1.61.43 3.094 1.292 4.454 1.18 1.86 2.72 3.05 4.624 3.57 1.904.52 3.853.567 5.848.136 1.995-.43 3.865-1.247 5.61-2.448 1.745-1.2 3.05-2.595 3.91-4.182.952-1.677 1.53-3.423 1.734-5.236.204-1.813.16-3.615-.136-5.406-.295-1.79-.827-3.547-1.598-5.27-.77-1.723-1.677-3.332-2.72-4.828-.952-1.496-1.575-3.162-1.87-4.998-.295-1.836-.306-3.66-.034-5.474.272-1.813.805-3.547 1.598-5.202.793-1.655 1.825-3.07 3.094-4.25 1.27-1.18 2.765-2.05 4.488-2.618 1.723-.567 3.627-.67 5.712-.306 1.315.227 2.493.68 3.536 1.36 1.043.68 1.904 1.52 2.584 2.516.68.997 1.145 2.12 1.394 3.366.25 1.247.238 2.55-.034 3.91-.363 1.86-1.065 3.457-2.108 4.794-1.043 1.337-2.22 2.323-3.536 2.958-1.043.5-2.21.737-3.502.714-1.292-.023-2.39-.374-3.298-1.054-.5-.408-.873-.986-1.122-1.734-.25-.748-.147-1.598.306-2.55zm29.308 7.956l-6.256 15.028c-.68 1.587-1.03 2.845-1.054 3.774-.023.93.33 1.394 1.054 1.394.544 0 1.18-.453 1.904-1.36.725-.907 1.473-2.006 2.244-3.298.77-1.292 1.496-2.663 2.176-4.114.68-1.45 1.224-2.72 1.632-3.808-.544-.544-.85-1.28-.918-2.21-.068-.93.057-1.825.374-2.686.317-.86.782-1.61 1.394-2.244.612-.635 1.35-.952 2.21-.952.77 0 1.35.193 1.734.578.385.385.646.873.782 1.462.136.59.147 1.258.034 2.006-.113.748-.26 1.462-.442 2.142 1.315-.408 2.64-.918 3.978-1.53 1.337-.612 2.3-1.145 2.89-1.598l.884 1.836c-1.18.725-2.573 1.45-4.182 2.176-1.61.725-3.117 1.247-4.522 1.564-.86 1.95-1.88 3.876-3.06 5.78-1.18 1.904-2.425 3.615-3.74 5.134-1.315 1.52-2.652 2.754-4.012 3.706-1.36.952-2.675 1.428-3.944 1.428-1.496 0-2.63-.51-3.4-1.53s-.975-2.505-.612-4.454c-1.36 1.723-2.71 3.15-4.046 4.284-1.337 1.133-2.595 1.7-3.774 1.7-.907 0-1.655-.227-2.244-.68-.59-.453-.952-1.18-1.088-2.176-.136-.997-.01-2.244.374-3.74.385-1.496 1.122-3.31 2.21-5.44 1.088-2.13 2.05-3.955 2.89-5.474.84-1.52 1.575-2.777 2.21-3.774.725-1.18 1.36-2.153 1.904-2.924h5.508c-.86 1.36-1.7 2.743-2.516 4.148-.725 1.18-1.473 2.482-2.244 3.91-.77 1.428-1.473 2.8-2.108 4.114-1.224 2.584-1.96 4.397-2.21 5.44-.25 1.043-.08 1.564.51 1.564.272 0 .737-.363 1.394-1.088.657-.725 1.405-1.655 2.244-2.788.84-1.133 1.723-2.414 2.652-3.842.93-1.428 1.836-2.856 2.72-4.284.884-1.428 1.677-2.777 2.38-4.046.703-1.27 1.258-2.312 1.666-3.128h4.42zm25.976 11.56l1.564 1.632c-1.224 2.13-2.652 4.023-4.284 5.678-1.632 1.655-3.332 2.98-5.1 3.978-1.768.997-3.513 1.598-5.236 1.802-1.723.204-3.264-.125-4.624-.986-.725-.453-1.303-1.088-1.734-1.904-.43-.816-.69-1.78-.782-2.89-.09-1.11 0-2.312.272-3.604.272-1.292.748-2.64 1.428-4.046 1.315-2.675 2.73-4.873 4.25-6.596 1.52-1.723 3.003-3.037 4.454-3.944 1.45-.907 2.81-1.45 4.08-1.632 1.27-.18 2.312-.068 3.128.34.68.363 1.213.895 1.598 1.598.385.703.6 1.507.646 2.414.045.907-.08 1.893-.374 2.958-.295 1.065-.805 2.12-1.53 3.162-.997 1.45-2.097 2.618-3.298 3.502-1.2.884-2.37 1.473-3.502 1.768-1.133.295-2.142.317-3.026.068-.884-.25-1.53-.782-1.938-1.598-.408 1.496-.555 2.822-.442 3.978.113 1.156.623 1.938 1.53 2.346.725.363 1.677.42 2.856.17 1.18-.25 2.38-.748 3.604-1.496 1.224-.748 2.414-1.7 3.57-2.856 1.156-1.156 2.12-2.437 2.89-3.842zm-5.916-4.148c1.18-1.27 1.95-2.46 2.312-3.57.363-1.11.363-1.78 0-2.006-.544-.363-1.224-.363-2.04 0-.816.363-1.655.952-2.516 1.768-.86.816-1.7 1.79-2.516 2.924-.816 1.133-1.496 2.29-2.04 3.468-.227.635-.16 1.03.204 1.19.363.16.884.113 1.564-.136.68-.25 1.462-.68 2.346-1.292.884-.612 1.78-1.394 2.686-2.346zm24.548 4.148l1.564 1.632c-1.224 2.13-2.652 4.023-4.284 5.678-1.632 1.655-3.332 2.98-5.1 3.978-1.768.997-3.513 1.598-5.236 1.802-1.723.204-3.264-.125-4.624-.986-.725-.453-1.303-1.088-1.734-1.904-.43-.816-.69-1.78-.782-2.89-.09-1.11 0-2.312.272-3.604.272-1.292.748-2.64 1.428-4.046 1.315-2.675 2.73-4.873 4.25-6.596 1.52-1.723 3.003-3.037 4.454-3.944 1.45-.907 2.81-1.45 4.08-1.632 1.27-.18 2.312-.068 3.128.34.68.363 1.213.895 1.598 1.598.385.703.6 1.507.646 2.414.045.907-.08 1.893-.374 2.958-.295 1.065-.805 2.12-1.53 3.162-.997 1.45-2.097 2.618-3.298 3.502-1.2.884-2.37 1.473-3.502 1.768-1.133.295-2.142.317-3.026.068-.884-.25-1.53-.782-1.938-1.598-.408 1.496-.555 2.822-.442 3.978.113 1.156.623 1.938 1.53 2.346.725.363 1.677.42 2.856.17 1.18-.25 2.38-.748 3.604-1.496 1.224-.748 2.414-1.7 3.57-2.856 1.156-1.156 2.12-2.437 2.89-3.842zm-5.916-4.148c1.18-1.27 1.95-2.46 2.312-3.57.363-1.11.363-1.78 0-2.006-.544-.363-1.224-.363-2.04 0-.816.363-1.655.952-2.516 1.768-.86.816-1.7 1.79-2.516 2.924-.816 1.133-1.496 2.29-2.04 3.468-.227.635-.16 1.03.204 1.19.363.16.884.113 1.564-.136.68-.25 1.462-.68 2.346-1.292.884-.612 1.78-1.394 2.686-2.346zm10.2 12.376c.453 0 1.054-.193 1.802-.578.748-.385 1.54-.93 2.38-1.632.84-.703 1.666-1.564 2.482-2.584.816-1.02 1.52-2.165 2.108-3.434l1.564 1.632c-.816 1.723-1.768 3.264-2.856 4.624-1.088 1.36-2.233 2.516-3.434 3.468-1.2.952-2.403 1.677-3.604 2.176-1.2.5-2.323.748-3.366.748-.907 0-1.71-.204-2.414-.612-.703-.408-1.213-.997-1.53-1.768-.317-.77-.42-1.734-.306-2.89.113-1.156.51-2.46 1.19-3.91l5.984-12.716h-2.992l1.088-2.312h2.992l5.372-11.424 6.256-1.564-6.052 12.988h4.76l-.952 2.312h-4.896l-5.916 12.716c-.77 1.587-1.065 2.777-.884 3.57.18.793.59 1.19 1.224 1.19zm62.968-34.136c-1.133-1.813-2.72-3.15-4.76-4.012-1.224-.5-2.46-.76-3.706-.782-1.247-.023-2.437.18-3.57.612-1.133.43-2.176 1.043-3.128 1.836-.952.793-1.723 1.757-2.312 2.89-.408.77-.737 1.69-.986 2.754-.25 1.065-.34 2.108-.272 3.128s.33 1.95.782 2.788c.453.84 1.156 1.462 2.108 1.87.952.363 1.88.408 2.788.136.907-.272 1.655-.77 2.244-1.496.363-.5.623-1.077.782-1.734.16-.657.193-1.303.102-1.938 1.088-.363 1.983-.295 2.686.204.703.5 1.1 1.337 1.19 2.516.09.816-.023 1.575-.34 2.278-.317.703-.748 1.337-1.292 1.904s-1.167 1.043-1.87 1.428c-.703.385-1.394.67-2.074.85-.907.227-1.86.25-2.856.068-.997-.18-1.904-.544-2.72-1.088-.997-.635-1.78-1.428-2.346-2.38-.567-.952-.975-1.995-1.224-3.128-.25-1.133-.35-2.278-.306-3.434.045-1.156.18-2.255.408-3.298.453-1.904 1.247-3.593 2.38-5.066 1.133-1.473 2.482-2.675 4.046-3.604 1.564-.93 3.275-1.553 5.134-1.87 1.86-.317 3.74-.272 5.644.136 1.405.272 2.743.748 4.012 1.428 1.27.68 2.425 1.473 3.468 2.38l8.024-4.012 1.088 2.04c-.816.18-1.52.555-2.108 1.122-.59.567-1.19 1.383-1.802 2.448-.612 1.065-1.247 2.357-1.904 3.876-.657 1.52-1.462 3.32-2.414 5.406-1.133 2.493-2.255 4.975-3.366 7.446-1.11 2.47-2.255 4.93-3.434 7.378l5.372 1.428c.227-.544.453-1.065.68-1.564l.68-1.496c1.224-2.63 2.73-5.45 4.522-8.466 1.79-3.015 3.808-5.86 6.052-8.534 2.244-2.675 4.726-5.02 7.446-7.038 2.72-2.017 5.62-3.343 8.704-3.978l.816 2.176c-2.267 1.043-4.363 2.47-6.29 4.284-1.927 1.813-3.706 3.83-5.338 6.052-1.632 2.22-3.117 4.522-4.454 6.902-1.337 2.38-2.55 4.613-3.638 6.698-.363.635-.827 1.507-1.394 2.618-.567 1.11-1.167 2.37-1.802 3.774 1.587.227 3.026.33 4.318.306 1.292-.023 2.39-.35 3.298-.986.227.227.42.544.578.952.16.408.33.77.51 1.088-1.587.77-3.207 1.235-4.862 1.394-1.655.16-3.343.193-5.066.102-.68 1.723-1.28 3.468-1.802 5.236-.52 1.768-.793 3.4-.816 4.896-.023 1.496.26 2.788.85 3.876s1.632 1.79 3.128 2.108c0 .725-.34 1.27-1.02 1.632-.68.363-1.462.465-2.346.306-.884-.16-1.79-.6-2.72-1.326-.93-.725-1.643-1.79-2.142-3.196-.77-2.22-1.043-4.567-.816-7.038.227-2.47.748-4.885 1.564-7.242-1.043-.18-2.05-.35-3.026-.51-.975-.16-1.96-.283-2.958-.374-.227.408-.442.816-.646 1.224-.204.408-.42.816-.646 1.224-.77 1.45-1.587 2.88-2.448 4.284-.86 1.405-1.802 2.754-2.822 4.046-1.02 1.292-2.12 2.505-3.298 3.638-1.18 1.133-2.493 2.13-3.944 2.992-1.18.68-2.573 1.28-4.182 1.802-1.61.52-3.23.793-4.862.816-1.632.023-3.162-.272-4.59-.884s-2.55-1.69-3.366-3.23c-.77-1.45-1.19-3.026-1.258-4.726-.068-1.7.136-3.39.612-5.066.476-1.677 1.2-3.275 2.176-4.794.975-1.52 2.12-2.8 3.434-3.842 1.315-1.043 2.754-1.802 4.318-2.278 1.564-.476 3.185-.533 4.862-.17.77.18 1.53.6 2.278 1.258.748.657 1.167 1.37 1.258 2.142.317-.952.782-1.71 1.394-2.278.612-.567 1.315-.975 2.108-1.224.793-.25 1.677-.385 2.652-.408.975-.023 1.983.034 3.026.17 1.088-2.04 2.12-4.07 3.094-6.086.975-2.017 1.95-3.978 2.924-5.882.975-1.904 1.983-3.74 3.026-5.508 1.043-1.768 2.176-3.4 3.4-4.896l-4.624 2.516zm-17.136 27.54c-.453-.59-1.043-1.02-1.768-1.292-.725-.272-1.496-.442-2.312-.51-.816-.068-1.62-.045-2.414.068-.793.113-1.462.26-2.006.442-1.768.544-3.377 1.7-4.828 3.468-.635.816-1.167 1.86-1.598 3.128-.43 1.27-.67 2.54-.714 3.808-.045 1.27.16 2.437.612 3.502.453 1.065 1.247 1.78 2.38 2.142 1.904.635 3.774.5 5.61-.408 1.836-.907 3.57-2.244 5.202-4.012 1.632-1.768 3.162-3.808 4.59-6.12 1.428-2.312 2.71-4.533 3.842-6.664-1.18.18-2.312.453-3.4.816-1.088.363-2.153.907-3.196 1.632zm56.236-7.548l.884 1.836c-1.224.77-2.46 1.36-3.706 1.768-1.247.408-2.46.657-3.638.748-.09.363-.215.703-.374 1.02-.16.317-.306.657-.442 1.02-.816 1.723-1.825 3.423-3.026 5.1-1.2 1.677-2.505 3.105-3.91 4.284-1.405 1.18-2.845 2.006-4.318 2.482-1.473.476-2.913.397-4.318-.238-1.45-.68-2.323-2.063-2.618-4.148-.295-2.085.26-4.533 1.666-7.344 1.315-2.675 2.697-4.93 4.148-6.766 1.45-1.836 2.89-3.275 4.318-4.318 1.428-1.043 2.788-1.7 4.08-1.972 1.292-.272 2.46-.18 3.502.272.453.227.884.578 1.292 1.054.408.476.612 1.01.612 1.598-.68-.544-1.485-.85-2.414-.918-.93-.068-1.915.227-2.958.884-1.043.657-2.13 1.7-3.264 3.128-1.133 1.428-2.267 3.366-3.4 5.814-.997 2.085-1.507 3.887-1.53 5.406-.023 1.52.442 2.527 1.394 3.026.453.272 1.03.227 1.734-.136.703-.363 1.44-.94 2.21-1.734.77-.793 1.53-1.745 2.278-2.856.748-1.11 1.394-2.255 1.938-3.434l.612-1.496c-.952-.408-1.61-1.043-1.972-1.904-.363-.86-.487-1.71-.374-2.55.113-.84.453-1.587 1.02-2.244.567-.657 1.35-.986 2.346-.986 1.224 0 2.05.544 2.482 1.632.43 1.088.442 2.425.034 4.012 1.043-.136 2.108-.385 3.196-.748s1.927-.793 2.516-1.292zm23.324 5.916l1.564 1.632c-1.587 3.49-3.253 6.2-4.998 8.126-1.745 1.927-3.638 2.89-5.678 2.89-1.043 0-1.87-.25-2.482-.748-.612-.5-.907-1.337-.884-2.516.023-1.18.453-2.73 1.292-4.658.84-1.927 2.187-4.295 4.046-7.106.997-1.45 1.7-2.663 2.108-3.638.408-.975.363-1.462-.136-1.462-.272 0-.657.193-1.156.578-.5.385-1.054.895-1.666 1.53-.612.635-1.235 1.383-1.87 2.244-.635.86-1.224 1.79-1.768 2.788-.544.997-1.167 2.21-1.87 3.638-.703 1.428-1.37 2.822-2.006 4.182-.725 1.587-1.45 3.24-2.176 4.964h-5.576c1.043-2.176 2.017-4.216 2.924-6.12.408-.816.805-1.643 1.19-2.482.385-.84.77-1.655 1.156-2.448l1.054-2.176c.317-.657.59-1.19.816-1.598 1.677-3.264 2.04-4.896 1.088-4.896-.453 0-1.088.5-1.904 1.496-.816.997-1.734 2.335-2.754 4.012-1.02 1.677-2.108 3.593-3.264 5.746-1.156 2.153-2.3 4.386-3.434 6.698v-.068L485.632 85h-5.576l11.356-24.004h5.576l-1.632 3.4c1.18-1.224 2.312-2.097 3.4-2.618 1.088-.52 2.244-.782 3.468-.782.816 0 1.45.306 1.904.918.453.612.635 1.417.544 2.414 2.448-2.22 4.58-3.332 6.392-3.332.59 0 1.1.16 1.53.476.43.317.737.76.918 1.326.18.567.215 1.235.102 2.006-.113.77-.42 1.587-.918 2.448-1.632 2.9-2.947 5.247-3.944 7.038-.997 1.79-1.734 3.185-2.21 4.182-.476.997-.725 1.666-.748 2.006-.023.34.102.51.374.51.907 0 1.96-.77 3.162-2.312 1.2-1.54 2.39-3.58 3.57-6.12zm18.632 0l1.564 1.632c-1.224 2.13-2.652 4.023-4.284 5.678-1.632 1.655-3.332 2.98-5.1 3.978-1.768.997-3.513 1.598-5.236 1.802-1.723.204-3.264-.125-4.624-.986-.725-.453-1.303-1.088-1.734-1.904-.43-.816-.69-1.78-.782-2.89-.09-1.11 0-2.312.272-3.604.272-1.292.748-2.64 1.428-4.046 1.315-2.675 2.73-4.873 4.25-6.596 1.52-1.723 3.003-3.037 4.454-3.944 1.45-.907 2.81-1.45 4.08-1.632 1.27-.18 2.312-.068 3.128.34.68.363 1.213.895 1.598 1.598.385.703.6 1.507.646 2.414.045.907-.08 1.893-.374 2.958-.295 1.065-.805 2.12-1.53 3.162-.997 1.45-2.097 2.618-3.298 3.502-1.2.884-2.37 1.473-3.502 1.768-1.133.295-2.142.317-3.026.068-.884-.25-1.53-.782-1.938-1.598-.408 1.496-.555 2.822-.442 3.978.113 1.156.623 1.938 1.53 2.346.725.363 1.677.42 2.856.17 1.18-.25 2.38-.748 3.604-1.496 1.224-.748 2.414-1.7 3.57-2.856 1.156-1.156 2.12-2.437 2.89-3.842zm-5.916-4.148c1.18-1.27 1.95-2.46 2.312-3.57.363-1.11.363-1.78 0-2.006-.544-.363-1.224-.363-2.04 0-.816.363-1.655.952-2.516 1.768-.86.816-1.7 1.79-2.516 2.924-.816 1.133-1.496 2.29-2.04 3.468-.227.635-.16 1.03.204 1.19.363.16.884.113 1.564-.136.68-.25 1.462-.68 2.346-1.292.884-.612 1.78-1.394 2.686-2.346zM186.54 109.007c.466-.267.738-.178.817.267.04.188-.06.37-.297.55-.108.078-.21.145-.304.2-.094.053-.18.095-.26.125-.227.098-.432.17-.615.214-.182.045-.342.077-.48.097-.258.02-.53.03-.817.03-.287 0-.588-.024-.905-.074-.642-.1-1.162-.32-1.557-.667-.365-.308-.667-.68-.904-1.114-.237-.435-.43-.875-.578-1.32l-.03-.09c-.09-.286-.12-.605-.097-.956.026-.35.034-.68.024-.986 0-.238.005-.448.015-.63.008-.184.033-.34.073-.468.07-.247.227-.583.474-1.01.267-.473.57-.884.905-1.23.336-.346.79-.578 1.365-.697.148-.02.405-.08.77-.18.11-.03.23-.053.365-.073.133-.02.284-.025.452-.015.13 0 .28.015.453.044.173.03.373.07.6.12.16.05.4.152.727.31.307.13.49.302.55.52.02.08.01.163-.03.252-.09.148-.194.237-.312.267-.07.02-.156.02-.26 0-.104-.02-.23-.07-.378-.148-.198-.1-.38-.183-.55-.253-.167-.07-.338-.12-.51-.155-.174-.036-.352-.048-.535-.038-.184.01-.384.044-.6.103-.516.16-.877.292-1.084.4-.218.12-.475.4-.772.846-.237.348-.417.71-.54 1.092-.125.38-.196.77-.216 1.172-.02.4.012.798.096 1.194.084.395.215.776.393 1.142v.015h.015c.425.79 1.034 1.285 1.825 1.483.573.138 1.018.168 1.335.09.09-.01.173-.026.252-.045.08-.02.163-.04.252-.06.336-.07.628-.178.875-.326zm7.285 1.35c-.198-.06-.398-.136-.6-.23-.204-.094-.402-.203-.595-.326-.192-.123-.373-.262-.54-.415-.17-.153-.312-.32-.43-.497-.16-.247-.273-.502-.342-.764-.07-.262-.168-.53-.297-.808-.098-.218-.152-.455-.162-.712-.01-.12-.022-.24-.037-.364-.014-.123-.02-.244-.02-.363-.01-.12-.02-.222-.024-.31-.005-.09-.007-.165-.007-.224 0-.188.01-.383.036-.586.025-.203.062-.413.11-.63.01-.07.04-.16.09-.267.1-.297.225-.576.378-.838.154-.262.33-.507.527-.735.387-.435.926-.82 1.618-1.157.316-.138.648-.202.994-.193.217.02.435.05.652.09.178.03.334.05.468.066.133.015.25.032.348.052.762.09 1.434.425 2.018 1.01.128.127.25.268.363.422.115.153.226.318.335.496l.074.12c.01.03.02.054.03.073l.028.06c.168.395.322.89.46 1.483.13.553.148 1.062.06 1.527-.06.267-.134.524-.223.77-.09.248-.168.496-.237.743-.386 1.325-1.256 2.16-2.61 2.507l-.12.03c-.08.02-.178.04-.296.06-.12.02-.258.038-.416.058-.257.03-.52.035-.793.015-.272-.02-.552-.074-.838-.163zm1.498-8.485c-.534 0-1.016.064-1.447.193-.43.128-.818.366-1.164.712-.475.474-.776 1-.905 1.58-.128.578-.123 1.223.015 1.935l.134.727c.02.138.04.25.06.333.02.084.033.136.043.156.06.216.177.424.355.622.178.197.342.37.49.52.08.088.158.174.237.258.08.084.163.16.252.23.15.13.396.248.742.356h.015c.19.05.4.067.63.052.234-.015.493-.057.78-.126.14-.04.28-.067.423-.08.143-.016.29-.043.437-.083.366-.09.673-.288.92-.594h.015v-.015c.158-.187.292-.424.4-.71.1-.288.174-.47.223-.55.494-.97.57-2.017.222-3.145l-.014-.015c-.04-.108-.08-.212-.12-.31-.04-.1-.093-.2-.162-.298-.386-.583-.846-1.003-1.38-1.26-.02-.01-.064-.035-.133-.075l-.296-.178c-.178-.11-.43-.19-.756-.238h-.015zm8.855 8.203c-.04.178-.192.282-.46.31-.276-.008-.415-.162-.415-.458 0-.772-.017-1.55-.052-2.337-.033-.786-.01-1.565.068-2.336v-.015c0-.228.003-.45.007-.668.005-.218-.002-.43-.022-.638l-.118-1.128c-.03-.316.02-.657.148-1.023.1-.257.232-.41.4-.46.14-.03.282.04.43.208.14.15.243.278.312.386.13.188.26.356.393.505.134.15.265.288.393.416.11.13.22.24.335.334.114.094.225.2.334.32.098.098.206.224.325.377.12.153.247.334.386.542l.653 1.007c.05.07.102.15.156.238.054.09.12.192.2.31l.014.016c.208.278.426.54.653.787.11.12.218.23.326.334.11.105.223.21.34.32.11.128.24.168.387.118.228-.06.336-.286.326-.682 0-.1-.007-.203-.022-.31-.015-.11-.022-.22-.022-.328l-.03-.23c-.01-.074-.015-.155-.015-.244 0-.04-.002-.085-.007-.134-.005-.05-.007-.104-.007-.163.04-.87.01-1.68-.09-2.433-.01-.05-.014-.13-.014-.245 0-.114.01-.26.028-.438.01-.218.04-.45.09-.697.03-.356.187-.534.474-.534.317 0 .475.19.475.564.01.307.022.616.037.927.015.313.022.622.022.93.01.453 0 .908-.03 1.363-.03.455-.034.91-.014 1.365.02.306.027.608.022.905-.005.296-.012.593-.022.89 0 .168.002.333.007.497.004.163.007.32.007.467v.593c-.01.06-.018.12-.023.178-.005.06-.007.114-.007.163-.01.01-.015.02-.015.03 0 .01-.005.016-.015.016-.11.148-.277.222-.504.222-.267.02-.47-.064-.608-.252-.15-.188-.285-.39-.408-.608-.124-.217-.26-.43-.408-.638-.18-.237-.374-.492-.587-.764-.213-.272-.448-.56-.705-.867-.1-.11-.237-.308-.415-.595l-.52-.83-.385-.6c-.128-.204-.262-.4-.4-.587-.06-.07-.124-.146-.193-.23-.07-.084-.144-.156-.223-.215-.08-.06-.168-.104-.267-.134-.1-.03-.198-.03-.296 0-.268.078-.392.35-.372.815.01.336.017.653.022.95.005.296.017.573.037.83.02.208.017.416-.007.623-.025.208-.037.41-.037.608v1.157c0 .248-.008.47-.023.668-.014.2-.032.377-.052.535zm11.378 0c-.04.178-.193.282-.46.31-.277-.008-.415-.162-.415-.458 0-.772-.017-1.55-.05-2.337-.036-.786-.014-1.565.065-2.336v-.015c0-.228.003-.45.008-.668.005-.218-.003-.43-.022-.638l-.118-1.128c-.03-.316.02-.657.148-1.023.1-.257.233-.41.4-.46.14-.03.283.04.43.208.14.15.243.278.312.386.13.188.26.356.393.505.134.15.265.288.394.416.107.13.22.24.332.334.114.094.225.2.334.32.1.098.208.224.326.377.12.153.248.334.386.542l.653 1.007c.05.07.102.15.157.238.054.09.12.192.2.31l.015.016c.207.278.425.54.652.787.11.12.218.23.327.334.11.105.223.21.342.32.11.128.237.168.385.118.228-.06.337-.286.327-.682 0-.1-.008-.203-.022-.31-.015-.11-.023-.22-.023-.328l-.03-.23c-.01-.074-.015-.155-.015-.244 0-.04-.003-.085-.008-.134-.005-.05-.007-.104-.007-.163.04-.87.01-1.68-.09-2.433-.01-.05-.014-.13-.014-.245 0-.114.01-.26.03-.438.01-.218.04-.45.09-.697.028-.356.187-.534.473-.534.316 0 .474.19.474.564.01.307.022.616.037.927.016.313.023.622.023.93.01.453 0 .908-.03 1.363-.03.455-.034.91-.014 1.365.02.306.026.608.02.905-.004.296-.01.593-.02.89 0 .168 0 .333.006.497.005.163.008.32.008.467v.593c-.01.06-.017.12-.022.178-.005.06-.008.114-.008.163-.01.01-.015.02-.015.03 0 .01-.006.016-.016.016-.108.148-.276.222-.504.222-.267.02-.47-.064-.608-.252-.148-.188-.284-.39-.408-.608-.124-.217-.26-.43-.408-.638-.178-.237-.373-.492-.586-.764-.212-.272-.447-.56-.704-.867-.1-.11-.238-.308-.416-.595l-.52-.83-.385-.6c-.128-.204-.262-.4-.4-.587-.06-.07-.124-.146-.193-.23-.07-.084-.143-.156-.222-.215-.08-.06-.17-.104-.267-.134-.1-.03-.198-.03-.297 0-.267.078-.39.35-.37.815.01.336.016.653.02.95.006.296.02.573.038.83.02.208.018.416-.007.623-.025.208-.037.41-.037.608v1.157c0 .248-.008.47-.022.668-.015.2-.032.377-.052.535zm10.532-.58c-.01-.602-.013-1.205-.008-1.808.005-.604.008-1.207.008-1.81v-.52c0-.266-.008-.536-.023-.808-.015-.273-.012-.542.008-.81.01-.296.015-.59.015-.882 0-.29.004-.586.014-.882 0-.356.084-.603.253-.742.128-.1.356-.148.682-.148.168-.01.314-.017.437-.022.124-.005.23-.008.32-.008.385-.01.77-.007 1.156.008.386.014.772.017 1.157.007.208-.01.416-.016.623-.02.208-.006.41 0 .61.02l.755.045c.09.01.166.015.23.015s.12.01.17.03c.208.11.307.262.297.46-.01.09-.044.16-.104.215-.06.054-.126.096-.2.126-.074.03-.15.05-.23.06-.08.01-.148.015-.207.015-.603 0-1.2-.015-1.794-.044-.06-.01-.134-.014-.223-.014h-1.156c-.228 0-.43.002-.61.007-.177.005-.325.008-.444.008-.168.01-.307.033-.415.067-.11.035-.188.092-.238.17-.08.12-.108.268-.09.446v.208l-.014.164c-.02.12-.034.245-.044.378-.01.134-.01.28 0 .438 0 .277.11.51.326.697.178.158.5.222.965.193.207-.01.412-.027.615-.052.203-.025.408-.032.616-.022.09 0 .205.002.348.007.144.005.314.002.512-.007.396-.01.663.06.8.207.05.07.07.183.06.34-.03.18-.168.288-.415.328-.228.04-.41.06-.55.06-.178.01-.353.012-.526.007-.173-.004-.35-.002-.527.008-.218.02-.44.025-.667.015-.228-.01-.465-.025-.713-.045-.03 0-.064-.002-.103-.007-.04-.005-.075-.008-.104-.008h-.015c-.11-.02-.218.005-.326.075-.18.108-.278.296-.298.563-.02.257-.02.48 0 .668.01.11.017.207.022.296.005.09.003.17-.007.238-.02.148-.037.294-.052.437-.015.144-.032.29-.052.438-.03.376.02.658.148.845.17.228.46.342.876.342.327 0 .658-.008.994-.023.337-.015.673-.033 1.01-.053.306-.01.62 0 .94.03.322.03.64.045.958.045.118 0 .277-.003.474-.008.198-.005.35.022.46.082.1.06.153.148.163.267.11.356-.044.544-.46.563-.652.03-1.292.04-1.92.03-.628-.01-1.26-.01-1.892 0-.04 0-.076.003-.11.008-.036.004-.068.007-.097.007h-.586l-.408-.014c-.07 0-.15-.002-.245-.007-.094-.006-.2-.014-.32-.024-.098-.01-.18-.02-.244-.03-.064-.01-.11-.02-.14-.03-.297-.088-.446-.365-.446-.83zm16.227-.488c.465-.267.737-.178.816.267.04.188-.058.37-.296.55-.108.078-.21.145-.304.2-.094.053-.18.095-.26.125-.227.098-.432.17-.615.214-.183.045-.343.077-.482.097-.257.02-.53.03-.816.03-.287 0-.588-.024-.905-.074-.642-.1-1.162-.32-1.557-.667-.366-.308-.668-.68-.905-1.114-.237-.435-.43-.875-.578-1.32l-.03-.09c-.09-.286-.12-.605-.097-.956.025-.35.033-.68.023-.986 0-.238.005-.448.015-.63.01-.184.034-.34.074-.468.07-.247.227-.583.474-1.01.268-.473.57-.884.906-1.23.336-.346.79-.578 1.365-.697.15-.02.406-.08.772-.18.11-.03.23-.053.364-.073.133-.02.284-.025.452-.015.13 0 .28.015.453.044.174.03.374.07.6.12.16.05.402.152.728.31.307.13.49.302.55.52.02.08.01.163-.03.252-.09.148-.194.237-.312.267-.07.02-.156.02-.26 0-.104-.02-.23-.07-.378-.148-.198-.1-.38-.183-.55-.253-.167-.07-.338-.12-.51-.155-.174-.036-.352-.048-.535-.038-.183.01-.383.044-.6.103-.515.16-.876.292-1.083.4-.218.12-.475.4-.772.846-.237.348-.417.71-.54 1.092-.125.38-.196.77-.216 1.172-.02.4.012.798.096 1.194.084.395.215.776.393 1.142v.015h.016c.425.79 1.034 1.285 1.825 1.483.574.138 1.02.168 1.336.09.09-.01.173-.026.252-.045.08-.02.163-.04.252-.06.336-.07.628-.178.875-.326zm11.363-7.194c-.14.158-.366.227-.682.207l-.742-.044-.43-.03c-.14-.01-.282-.015-.43-.015-.297-.01-.515.056-.653.194-.108.13-.162.34-.162.638 0 .138.007.274.022.408.015.133.022.27.022.408.01.326.017.61.022.853.005.243.008.448.008.616 0 .505-.03 1.01-.09 1.513-.03.237-.03.474 0 .71.03.24.05.47.06.7.01.256.017.478.022.666.005.188.008.346.008.475v.2l-.015.32c-.02.267-.04.43-.06.49-.128.217-.296.296-.504.237-.257-.05-.385-.238-.385-.564-.01-.297-.003-.596.022-.897.025-.302.047-.6.067-.898.03-.346.027-.697-.008-1.053s-.053-.712-.053-1.068c0-.326.013-.655.037-.986.025-.33.042-.66.052-.986 0-.643-.103-1.097-.31-1.364-.11-.14-.24-.245-.394-.32-.154-.074-.324-.12-.512-.14-.188-.02-.363-.037-.527-.052-.163-.015-.323-.023-.482-.022h-.45l-.424-.09c-.08-.04-.128-.133-.148-.28-.02-.11-.005-.204.044-.283.07-.12.243-.193.52-.223.03-.01.084-.015.163-.015.415-.01.818.008 1.21.052.39.045.792.052 1.208.023.168-.01.333-.025.496-.045.163-.02.333-.03.51-.03h.988l.986-.014c.168 0 .314.006.438.015.123.01.23.035.32.075.305.207.384.415.236.623zm4.213 8.573c-.316-.05-.474-.237-.474-.563-.01-.534-.015-1.058-.015-1.573v-1.572c0-.297.016-.593.046-.89.02-.218.03-.42.03-.608s-.006-.36-.016-.52c-.01-.098-.02-.217-.03-.355-.01-.14-.02-.302-.03-.49 0-.1.004-.217.008-.356.005-.14.013-.303.023-.49.01-.14.018-.26.023-.364.005-.104.007-.195.007-.274v-.459c-.03-.247-.024-.42.015-.52.03-.068.094-.138.193-.207.386-.198.623-.074.712.37.08.337.126.666.14.987.016.322.008.64-.02.957v.014c-.03.306-.038.613-.024.92.015.306.008.613-.022.92-.03.266-.054.5-.074.696-.02.198-.035.366-.044.505-.02.198-.03.403-.03.615 0 .213.005.438.015.675.01.05.016.107.016.17v.706l.014.46c0 .11.003.21.008.304s.002.19-.008.29c0 .197-.005.306-.014.326-.04.188-.188.297-.445.326zm5.444-.31c-.04.177-.192.28-.46.31-.276-.01-.415-.163-.415-.46 0-.77-.018-1.55-.053-2.336-.034-.786-.012-1.565.067-2.336v-.015c0-.228.003-.45.008-.668.004-.218-.003-.43-.023-.638l-.12-1.128c-.03-.316.02-.657.15-1.023.098-.257.23-.41.4-.46.138-.03.28.04.43.208.138.15.242.278.31.386.13.188.26.356.394.505.134.15.265.288.393.416.11.13.22.24.334.334.115.094.226.2.335.32.1.098.207.224.326.377.12.153.248.334.387.542l.653 1.007c.05.07.1.15.155.238.055.09.12.192.2.31l.015.016c.208.278.426.54.653.787.11.12.218.23.326.334.108.105.222.21.34.32.11.128.238.168.386.118.228-.06.336-.286.327-.682 0-.1-.008-.203-.023-.31-.015-.11-.022-.22-.022-.328l-.03-.23c-.01-.074-.014-.155-.014-.244 0-.04-.003-.085-.008-.134-.005-.05-.007-.104-.007-.163.038-.87.01-1.68-.09-2.433-.01-.05-.015-.13-.015-.245 0-.114.01-.26.03-.438.01-.218.04-.45.09-.697.028-.356.186-.534.473-.534.317 0 .475.19.475.564.01.307.022.616.037.927.015.313.022.622.022.93.01.453 0 .908-.03 1.363-.03.455-.034.91-.014 1.365.02.306.027.608.022.905-.005.296-.012.593-.022.89 0 .168.002.333.007.497.005.163.008.32.008.467v.593c-.01.06-.018.12-.023.178-.005.06-.007.114-.007.163-.01.01-.015.02-.015.03 0 .01-.005.016-.015.016-.11.148-.277.222-.504.222-.268.02-.47-.064-.61-.252-.148-.188-.284-.39-.407-.608-.124-.217-.26-.43-.408-.638-.178-.237-.373-.492-.586-.764-.214-.272-.45-.56-.706-.867-.1-.11-.237-.308-.415-.595l-.52-.83c-.13-.198-.257-.398-.386-.6-.128-.204-.262-.4-.4-.587-.06-.07-.124-.146-.193-.23-.068-.084-.143-.156-.222-.215-.08-.06-.168-.104-.267-.134-.098-.03-.196-.03-.295 0-.267.078-.39.35-.37.815.01.336.016.653.02.95.006.296.018.573.038.83.02.208.017.416-.007.623-.025.208-.037.41-.037.608v1.157c0 .248-.01.47-.024.668-.014.2-.032.377-.052.535zm18.335-.64c-.733.654-1.613 1.005-2.642 1.054-1 .04-1.943-.118-2.833-.474l-.015-.015h-.03c-.148-.05-.36-.187-.637-.415-.267-.237-.445-.415-.534-.534-.15-.196-.28-.42-.394-.666-.114-.247-.23-.485-.35-.712-.217-.425-.335-.786-.355-1.083-.01-.15-.01-.32-.006-.513.005-.193.017-.413.037-.66.09-1.088.43-2.09 1.024-3.01.05-.08.144-.177.282-.29.14-.114.317-.23.534-.35.455-.246.84-.42 1.157-.518.208-.07.44-.12.697-.15.594-.07 1.202-.066 1.825.008.622.074 1.2.265 1.734.57.08.05.166.11.26.18.094.068.205.152.334.25.247.19.385.377.415.565.01.09-.02.178-.09.267-.108.138-.212.208-.31.208-.12 0-.248-.047-.386-.14-.14-.095-.247-.172-.326-.23l-.407-.268c-.104-.07-.166-.114-.186-.134-.504-.267-1.117-.4-1.84-.4-.167 0-.35.007-.548.022-.2.015-.41.042-.64.082h-.03l-.028.015c-1.256.356-2.072 1.21-2.448 2.566-.128.485-.155.945-.08 1.38.073.435.17.88.288 1.335.188.692.5 1.192.934 1.498.436.307.984.52 1.647.638h.015c.178.03.343.046.497.046.153 0 .304-.013.452-.037.15-.026.3-.053.453-.083.153-.03.32-.054.497-.074.702-.09 1.2-.34 1.498-.757v-.014c.217-.337.306-.806.267-1.41-.01-.316-.124-.573-.34-.77-.268-.248-.64-.362-1.114-.342l-1.187.044c-.127.01-.24.018-.34.023-.1.005-.188.007-.267.007-.376-.05-.54-.217-.49-.504.03-.198.17-.327.416-.386.444-.04.882-.044 1.312-.015.43.03.872.03 1.327 0l.637-.045c.287-.02.5.03.638.148.158.12.242.326.252.623.03.297.045.524.045.682 0 .267.005.547.015.838.01.292-.01.567-.06.824-.07.376-.262.75-.578 1.127zm17.265-7.623c-.14.158-.366.227-.682.207l-.742-.044-.43-.03c-.138-.01-.28-.015-.43-.015-.296-.01-.514.056-.652.194-.11.13-.163.34-.163.638 0 .138.007.274.022.408.015.133.022.27.022.408.01.326.017.61.02.853.006.243.01.448.01.616 0 .505-.03 1.01-.09 1.513-.03.237-.03.474 0 .71.03.24.05.47.06.7.01.256.017.478.02.666.006.188.01.346.01.475v.2l-.016.32c-.02.267-.04.43-.06.49-.128.217-.296.296-.504.237-.257-.05-.385-.238-.385-.564-.01-.297-.003-.596.022-.897.025-.302.047-.6.067-.898.03-.346.027-.697-.008-1.053-.034-.356-.052-.712-.052-1.068 0-.326.013-.655.037-.986.026-.33.044-.66.053-.986 0-.643-.103-1.097-.31-1.364-.11-.14-.24-.245-.394-.32-.154-.074-.325-.12-.513-.14-.188-.02-.363-.037-.527-.052-.163-.015-.323-.023-.482-.022h-.452l-.423-.09c-.08-.04-.128-.133-.148-.28-.02-.11-.005-.204.044-.283.07-.12.242-.193.52-.223.028-.01.083-.015.162-.015.415-.01.818.008 1.21.052.39.045.792.052 1.208.023.168-.01.333-.025.496-.045.164-.02.334-.03.512-.03h.987l.986-.014c.17 0 .315.006.44.015.122.01.23.035.318.075.306.207.385.415.237.623zm3.723 7.683c-.01-.603-.012-1.206-.007-1.81.006-.603.008-1.206.008-1.81v-.518c0-.267-.007-.537-.022-.81-.015-.27-.013-.54.007-.807.01-.296.015-.59.015-.882 0-.29.005-.586.015-.882 0-.356.084-.603.252-.742.13-.1.356-.148.682-.148.17-.01.314-.017.438-.022.124-.005.23-.008.32-.008.385-.01.77-.007 1.156.008.387.014.772.017 1.158.007.208-.01.415-.016.623-.02.21-.006.41 0 .61.02l.756.045c.09.01.165.015.23.015.064 0 .12.01.17.03.208.11.307.262.297.46-.01.09-.045.16-.104.215-.06.054-.127.096-.2.126-.075.03-.152.05-.23.06-.08.01-.15.015-.21.015-.602 0-1.2-.015-1.794-.044-.06-.01-.133-.014-.222-.014h-1.157c-.228 0-.43.002-.608.007-.18.005-.328.008-.446.008-.17.01-.307.033-.416.067-.11.035-.188.092-.237.17-.078.12-.108.268-.088.446v.208l-.015.164c-.02.12-.035.245-.044.378-.01.134-.01.28 0 .438 0 .277.108.51.326.697.177.158.498.222.963.193.208-.01.413-.027.616-.052.2-.025.407-.032.614-.022.09 0 .205.002.35.007.142.005.313.002.51-.007.396-.01.663.06.802.207.05.07.07.183.06.34-.03.18-.17.288-.416.328-.228.04-.41.06-.55.06-.177.01-.353.012-.526.007-.173-.004-.348-.002-.526.008-.218.02-.44.025-.668.015-.227-.01-.465-.025-.712-.045-.03 0-.064-.002-.104-.007-.04-.005-.074-.008-.104-.008h-.014c-.11-.02-.218.005-.327.075-.18.108-.278.296-.297.563-.02.257-.02.48 0 .668.01.11.017.207.022.296.005.09.002.17-.008.238-.02.148-.037.294-.052.437-.014.144-.032.29-.05.438-.03.376.018.658.147.845.168.228.46.342.875.342.326 0 .658-.008.994-.023.337-.015.673-.033 1.01-.053.306-.01.62 0 .942.03.32.03.64.045.956.045.12 0 .277-.003.475-.008.198-.005.35.022.46.082.1.06.153.148.163.267.11.356-.045.544-.46.563-.653.03-1.293.04-1.92.03-.63-.01-1.26-.01-1.892 0-.04 0-.077.003-.11.008-.036.004-.068.007-.098.007h-.586l-.408-.014c-.07 0-.15-.002-.244-.007-.094-.006-.2-.014-.32-.024-.098-.01-.18-.02-.244-.03-.064-.01-.11-.02-.14-.03-.298-.088-.446-.365-.446-.83zm11.05.58c-.038.177-.192.28-.46.31-.276-.01-.414-.163-.414-.46 0-.77-.017-1.55-.052-2.336-.035-.786-.012-1.565.067-2.336v-.015c0-.228 0-.45.006-.668.005-.218-.002-.43-.022-.638l-.12-1.128c-.028-.316.02-.657.15-1.023.098-.257.232-.41.4-.46.138-.03.282.04.43.208.14.15.243.278.312.386.128.188.26.356.393.505.132.15.263.288.392.416.11.13.22.24.334.334.113.094.225.2.333.32.098.098.207.224.326.377.118.153.247.334.385.542l.654 1.007c.05.07.1.15.156.238.054.09.12.192.2.31l.015.016c.208.278.425.54.653.787.108.12.217.23.326.334.11.105.222.21.34.32.11.128.238.168.387.118.228-.06.337-.286.327-.682 0-.1-.007-.203-.022-.31-.015-.11-.022-.22-.022-.328l-.03-.23c-.01-.074-.015-.155-.015-.244 0-.04-.002-.085-.007-.134-.004-.05-.007-.104-.007-.163.04-.87.01-1.68-.09-2.433-.01-.05-.014-.13-.014-.245 0-.114.01-.26.03-.438.01-.218.04-.45.088-.697.03-.356.188-.534.475-.534.316 0 .474.19.474.564.01.307.023.616.038.927.014.313.022.622.022.93.01.453 0 .908-.03 1.363-.03.455-.034.91-.015 1.365.02.306.028.608.023.905-.005.296-.013.593-.023.89 0 .168.003.333.008.497.005.163.007.32.007.467v.593c-.01.06-.017.12-.022.178-.005.06-.008.114-.008.163-.01.01-.014.02-.014.03 0 .01-.005.016-.015.016-.11.148-.277.222-.505.222-.267.02-.47-.064-.608-.252-.148-.188-.284-.39-.408-.608-.123-.217-.26-.43-.408-.638-.18-.237-.374-.492-.586-.764-.213-.272-.448-.56-.705-.867-.1-.11-.238-.308-.416-.595l-.52-.83c-.128-.198-.257-.398-.385-.6-.13-.204-.263-.4-.402-.587l-.193-.23c-.07-.084-.143-.156-.222-.215-.08-.06-.168-.104-.267-.134-.1-.03-.198-.03-.297 0-.268.078-.39.35-.372.815.01.336.018.653.023.95.006.296.018.573.038.83.02.208.017.416-.008.623-.024.208-.037.41-.037.608v1.157c0 .248-.007.47-.022.668-.014.2-.03.377-.05.535zm18.943-.18c0 .248-.102.406-.31.476-.178.08-.336.02-.475-.178-.07-.1-.126-.188-.17-.267-.045-.08-.082-.154-.112-.223-.138-.297-.262-.556-.37-.78-.11-.22-.218-.402-.327-.54-.237-.326-.5-.534-.786-.623-.247-.078-.643-.088-1.187-.03-.316.04-.615.066-.897.075-.282.01-.55.005-.808-.014-.574-.04-1 .144-1.276.55l-.03.044-.015.03c-.1.197-.18.393-.244.585-.065.192-.14.378-.23.556l-.312.49c-.137.207-.28.32-.43.34-.068.03-.167-.01-.296-.118-.06-.06-.096-.13-.11-.215-.016-.084-.016-.17 0-.26.014-.09.04-.18.073-.274.035-.095.067-.177.097-.246l.356-.742c.346-.712.67-1.434.97-2.165.303-.732.622-1.47.958-2.21.06-.13.11-.25.156-.364.044-.114.09-.225.14-.334.11-.268.218-.537.327-.81.11-.27.233-.54.372-.808l.222-.34c.11-.18.213-.273.312-.283.1-.02.227.064.386.25.168.2.328.432.482.7.153.266.284.518.393.755.346.732.67 1.466.97 2.203.303.737.627 1.46.973 2.173.11.22.215.44.32.66.103.224.214.44.333.646.06.15.12.292.185.43.064.14.126.277.185.416l.12.267c.03.068.05.128.058.177zm-2.936-4.152c-.098-.238-.195-.483-.29-.735-.093-.253-.204-.498-.333-.735-.236-.455-.498-.672-.785-.653-.11 0-.205.03-.29.09-.083.06-.155.13-.214.214-.058.085-.113.176-.162.275-.05.1-.09.194-.12.283-.108.296-.212.603-.31.92-.1.316-.193.622-.282.92-.07.217-.06.38.03.49.06.097.212.157.46.177.217.01.41.017.578.022.168.005.306.002.415-.008.217 0 .503-.03.86-.09.365-.058.583-.22.652-.488.03-.158.01-.292-.06-.4-.02-.04-.046-.087-.08-.142-.035-.054-.058-.1-.068-.14zm7.477 4.33c-.04.18-.192.283-.46.312-.276-.01-.415-.163-.415-.46 0-.77-.017-1.55-.052-2.336-.034-.786-.012-1.565.067-2.336v-.015c0-.228.003-.45.008-.668.005-.218-.003-.43-.023-.638l-.118-1.128c-.03-.316.02-.657.148-1.023.1-.257.232-.41.4-.46.14-.03.282.04.43.208.14.15.243.278.312.386.13.188.26.356.393.505.134.15.265.288.393.416.11.13.22.24.334.334.114.094.225.2.334.32.1.098.21.224.327.377.12.153.247.334.386.542l.653 1.007c.05.07.1.15.155.238.056.09.122.192.202.31l.014.016c.208.278.426.54.653.787.108.12.217.23.325.334.11.105.223.21.342.32.108.128.237.168.385.118.228-.06.336-.286.327-.682 0-.1-.01-.203-.024-.31-.014-.11-.022-.22-.022-.328l-.03-.23c-.01-.074-.014-.155-.014-.244 0-.04-.003-.085-.008-.134-.005-.05-.007-.104-.007-.163.04-.87.01-1.68-.09-2.433-.01-.05-.014-.13-.014-.245 0-.114.01-.26.03-.438.01-.218.04-.45.09-.697.03-.356.187-.534.474-.534.317 0 .475.19.475.564.01.307.02.616.036.927.015.313.022.622.022.93.01.453 0 .908-.03 1.363-.03.455-.034.91-.014 1.365.02.306.027.608.022.905-.005.296-.012.593-.022.89 0 .168.002.333.007.497.006.163.01.32.01.467v.593c-.01.06-.02.12-.024.178-.005.06-.007.114-.007.163-.01.01-.016.02-.016.03 0 .01-.005.016-.015.016-.11.148-.278.222-.505.222-.267.02-.47-.064-.608-.252-.15-.188-.285-.39-.408-.608-.125-.217-.26-.43-.41-.638-.177-.237-.372-.492-.585-.764-.213-.272-.447-.56-.705-.867-.098-.11-.237-.308-.415-.595l-.52-.83-.385-.6c-.128-.204-.262-.4-.4-.587-.06-.07-.124-.146-.193-.23-.07-.084-.144-.156-.223-.215-.08-.06-.168-.104-.267-.134-.1-.03-.197-.03-.296 0-.266.078-.39.35-.37.815.01.336.017.653.022.95.005.296.017.573.037.83.02.208.017.416-.008.623-.025.208-.037.41-.037.608v1.157c0 .248-.008.47-.023.668-.014.2-.032.377-.05.535zm17.667-8.26c-.138.157-.366.226-.682.206l-.742-.044-.43-.03c-.138-.01-.282-.015-.43-.015-.297-.01-.514.056-.653.194-.11.13-.163.34-.163.638 0 .138.007.274.022.408.014.133.022.27.022.408.01.326.017.61.022.853.005.243.007.448.007.616 0 .505-.028 1.01-.088 1.513-.03.237-.03.474 0 .71.03.24.05.47.06.7.01.256.017.478.022.666.005.188.007.346.007.475v.2l-.014.32c-.02.267-.04.43-.06.49-.127.217-.296.296-.503.237-.257-.05-.386-.238-.386-.564-.01-.297-.002-.596.022-.897.024-.302.046-.6.066-.898.03-.346.027-.697-.007-1.053-.036-.356-.053-.712-.053-1.068 0-.326.012-.655.037-.986.025-.33.042-.66.052-.986 0-.643-.104-1.097-.312-1.364-.11-.14-.24-.245-.393-.32-.152-.074-.323-.12-.51-.14-.188-.02-.364-.037-.527-.052-.163-.015-.324-.023-.482-.022h-.452l-.422-.09c-.08-.04-.13-.133-.15-.28-.02-.11-.004-.204.046-.283.07-.12.242-.193.52-.223.03-.01.083-.015.162-.015.415-.01.818.008 1.21.052.39.045.793.052 1.208.023.168-.01.334-.025.497-.045.162-.02.333-.03.51-.03h.987l.986-.014c.17 0 .314.006.438.015.125.01.23.035.32.075.306.207.386.415.237.623zm10.19 7.237c-.167.21-.328.392-.48.55-.155.158-.315.294-.483.408-.168.114-.354.208-.557.282-.202.074-.432.126-.69.156-.128.02-.26.032-.4.037-.138.005-.287-.003-.445-.022-.217-.02-.43-.03-.638-.03-.207 0-.42-.024-.638-.073-.474-.11-.87-.272-1.186-.49-.317-.217-.56-.5-.727-.845-.218-.475-.094-.722.37-.742.08 0 .17.057.275.17.104.114.186.2.245.26.208.208.326.322.356.34h.014v.016c.484.336 1.127.505 1.928.505h.03c.336 0 .766-.07 1.29-.207.515-.13.856-.39 1.024-.786.09-.238.09-.495 0-.772v-.014c-.247-.524-.727-.875-1.44-1.053l-1.824-.474c-.257-.06-.568-.183-.934-.37-.188-.1-.35-.19-.49-.268-.138-.08-.252-.158-.34-.237-.406-.297-.644-.594-.713-.89-.01-.05-.015-.12-.015-.208v-.326c0-.14.01-.275.03-.408l.06-.423c.06-.455.252-.86.578-1.217.148-.148.33-.274.54-.378.214-.104.42-.2.617-.29.277-.128.566-.194.868-.2.3-.004.6-.002.897.008.97.03 1.726.37 2.27 1.024.247.306.34.558.28.756l-.102.09c-.16.078-.347.024-.564-.164-.06-.04-.114-.084-.163-.134l-.148-.148-.192-.156c-.13-.103-.218-.155-.267-.155l-.03-.03h-.045c-.365-.11-.74-.174-1.12-.194-.38-.02-.773.015-1.18.104-.483.11-.854.31-1.11.6-.258.292-.387.68-.387 1.165v.03l.016.03c.04.613.514 1.048 1.424 1.305l.43.12 1.098.37c.168.06.336.125.504.2.168.074.346.15.534.23.277.128.534.252.77.37.24.12.456.243.654.37.14.09.245.2.32.328.073.128.123.267.147.415.025.148.035.302.03.46-.005.158-.022.3-.052.43-.02.11-.052.212-.096.31-.046.1-.093.19-.142.268zm16.733-7.237c-.138.158-.366.227-.682.207l-.742-.044-.43-.03c-.14-.01-.282-.015-.43-.015-.297-.01-.514.056-.653.194-.11.13-.163.34-.163.638 0 .138.007.274.022.408.015.133.022.27.022.408.01.326.018.61.023.853.005.243.007.448.007.616 0 .505-.03 1.01-.09 1.513-.03.237-.03.474 0 .71.03.24.05.47.06.7.01.256.018.478.023.666.005.188.007.346.007.475v.2l-.015.32c-.02.267-.04.43-.06.49-.13.217-.297.296-.504.237-.258-.05-.386-.238-.386-.564-.01-.297-.003-.596.022-.897.025-.302.047-.6.067-.898.03-.346.026-.697-.01-1.053-.033-.356-.05-.712-.05-1.068 0-.326.012-.655.037-.986.024-.33.042-.66.052-.986 0-.643-.105-1.097-.313-1.364-.11-.14-.24-.245-.393-.32-.153-.074-.324-.12-.512-.14-.188-.02-.363-.037-.526-.052-.164-.015-.324-.023-.482-.022h-.453l-.422-.09c-.08-.04-.128-.133-.148-.28-.02-.11-.005-.204.045-.283.07-.12.242-.193.52-.223.028-.01.083-.015.162-.015.415-.01.818.008 1.21.052.39.045.792.052 1.208.023.168-.01.333-.025.497-.045.163-.02.333-.03.51-.03h.988l.986-.014c.168 0 .314.006.438.015.123.01.23.035.32.075.305.207.384.415.236.623zm6.78 8.544c-.2-.06-.4-.136-.602-.23-.203-.094-.4-.203-.593-.326-.193-.123-.373-.262-.542-.415-.168-.153-.31-.32-.43-.497-.158-.247-.272-.502-.34-.764-.07-.262-.17-.53-.298-.808-.098-.218-.153-.455-.163-.712-.01-.12-.022-.24-.037-.364-.015-.123-.022-.244-.022-.363-.01-.12-.017-.222-.022-.31-.004-.09-.007-.165-.007-.224 0-.188.013-.383.037-.586.025-.203.062-.413.112-.63.01-.07.04-.16.09-.267.097-.297.224-.576.377-.838.152-.262.328-.507.525-.735.386-.435.925-.82 1.617-1.157.317-.138.648-.202.994-.193.218.02.435.05.653.09.177.03.333.05.466.066.134.015.25.032.35.052.76.09 1.433.425 2.016 1.01.13.127.25.268.363.422.114.153.225.318.334.496l.073.12c.01.03.02.054.03.073l.03.06c.168.395.32.89.46 1.483.128.553.148 1.062.06 1.527-.06.267-.135.524-.224.77-.09.248-.17.496-.238.743-.386 1.325-1.256 2.16-2.61 2.507l-.12.03c-.078.02-.177.04-.296.06-.12.02-.257.038-.415.058-.257.03-.52.035-.793.015-.272-.02-.55-.074-.838-.163zm1.497-8.485c-.534 0-1.016.064-1.446.193-.43.128-.818.366-1.164.712-.474.474-.776 1-.904 1.58-.13.578-.124 1.223.014 1.935l.134.727c.02.138.04.25.06.333.02.084.034.136.044.156.06.216.178.424.356.622.178.197.34.37.49.52.078.088.157.174.237.258.08.084.163.16.252.23.147.13.394.248.74.356h.015c.188.05.398.067.63.052.233-.015.493-.057.78-.126.138-.04.28-.067.422-.08.144-.016.29-.043.438-.083.366-.09.672-.288.92-.594h.014v-.015c.158-.187.29-.424.4-.71.1-.288.173-.47.222-.55.495-.97.57-2.017.223-3.145l-.015-.015c-.04-.108-.08-.212-.12-.31-.038-.1-.093-.2-.162-.298-.386-.583-.845-1.003-1.38-1.26-.02-.01-.064-.035-.133-.075-.07-.04-.168-.1-.297-.178-.178-.11-.43-.19-.756-.238h-.015zm19.477 7.743c.118.08.178.188.178.326.01.328-.183.49-.58.49-.71 0-1.423-.01-2.135-.03-.712-.02-1.424-.004-2.136.046-.563.03-.904-.124-1.023-.46-.06-.148-.09-.38-.09-.697.01-.17.02-.315.024-.44.006-.122.008-.23.008-.318.01-.217.022-.442.037-.675.015-.232.017-.462.008-.69l-.06-1.386c-.02-.45-.024-.912-.015-1.386l.03-.675c.01-.224.015-.454.015-.69.01-.288.012-.552.007-.795-.005-.242-.017-.462-.037-.66-.02-.267.104-.425.37-.474.387-.078.594.15.624.683.02.227.035.447.045.66.01.213.024.418.044.616v.384l-.06.564c-.02.158-.036.316-.05.475-.016.158-.028.31-.038.46-.02.375-.03.704-.03.986 0 .28.005.516.015.704.02.237.032.484.037.74.005.258-.002.53-.022.817-.02.436.04.723.178.86.11.13.34.21.697.24.178.02.353.033.527.043.173.01.348.025.526.045.267.03.54.032.816.007.277-.025.554-.017.83.022.18.02.394.037.646.052.252.014.457.066.615.155zm11.777.282c0 .247-.102.405-.31.475-.178.08-.336.02-.475-.178-.07-.1-.126-.188-.17-.267-.045-.08-.082-.154-.112-.223-.138-.297-.262-.556-.37-.78-.11-.22-.218-.402-.327-.54-.237-.326-.5-.534-.786-.623-.247-.078-.643-.088-1.187-.03-.316.04-.615.066-.897.075-.282.01-.55.005-.81-.014-.572-.04-.997.144-1.274.55l-.03.044-.015.03c-.1.197-.18.393-.244.585-.065.192-.14.378-.23.556l-.312.49c-.137.207-.28.32-.43.34-.068.03-.167-.01-.296-.118-.06-.06-.096-.13-.11-.215-.016-.084-.016-.17 0-.26.014-.09.04-.18.073-.274.035-.095.067-.177.097-.246l.356-.742c.346-.712.67-1.434.97-2.165.303-.732.622-1.47.958-2.21.06-.13.11-.25.156-.364.044-.114.09-.225.14-.334.11-.268.218-.537.327-.81.11-.27.233-.54.372-.808l.222-.34c.11-.18.213-.273.312-.283.1-.02.227.064.385.25.17.2.33.432.484.7.153.266.284.518.393.755.346.732.67 1.466.97 2.203.303.737.627 1.46.973 2.173.11.22.215.44.32.66.103.224.214.44.333.646.06.15.12.292.185.43.064.14.126.277.185.416l.12.267c.03.068.048.128.058.177zm-2.936-4.153c-.1-.238-.195-.483-.29-.735-.093-.253-.204-.498-.333-.735-.236-.455-.498-.672-.785-.653-.11 0-.205.03-.29.09-.083.06-.155.13-.214.214-.06.085-.113.176-.162.275-.05.1-.09.194-.12.283-.108.296-.212.603-.31.92-.1.316-.193.622-.282.92-.07.217-.06.38.03.49.06.097.212.157.46.177.217.01.41.017.578.022.168.005.306.002.415-.008.217 0 .503-.03.86-.09.365-.058.583-.22.652-.488.03-.158.01-.292-.06-.4-.02-.04-.046-.087-.08-.142-.036-.054-.058-.1-.068-.14zm7.476 4.33c-.04.18-.192.283-.46.312-.276-.01-.415-.163-.415-.46 0-.77-.017-1.55-.052-2.336-.034-.786-.012-1.565.067-2.336v-.015c0-.228.003-.45.007-.668.005-.218-.002-.43-.022-.638l-.118-1.128c-.03-.316.02-.657.148-1.023.1-.257.232-.41.4-.46.14-.03.282.04.43.208.14.15.243.278.312.386.13.188.26.356.393.505.134.15.265.288.393.416.11.13.22.24.334.334.114.094.225.2.334.32.1.098.208.224.327.377.12.153.247.334.386.542l.652 1.007c.05.07.102.15.156.238.056.09.122.192.2.31l.016.016c.208.278.426.54.653.787.108.12.217.23.325.334.11.105.223.21.34.32.11.128.24.168.387.118.228-.06.336-.286.327-.682 0-.1-.01-.203-.024-.31-.015-.11-.022-.22-.022-.328l-.03-.23c-.01-.074-.014-.155-.014-.244 0-.04-.003-.085-.008-.134-.005-.05-.007-.104-.007-.163.04-.87.01-1.68-.09-2.433-.01-.05-.014-.13-.014-.245 0-.114.01-.26.03-.438.01-.218.04-.45.09-.697.03-.356.187-.534.474-.534.317 0 .475.19.475.564.01.307.02.616.036.927.015.313.022.622.022.93.01.453 0 .908-.03 1.363-.03.455-.034.91-.014 1.365.02.306.027.608.022.905-.005.296-.012.593-.022.89 0 .168.002.333.007.497.006.163.01.32.01.467v.593c-.01.06-.02.12-.024.178-.005.06-.007.114-.007.163-.01.01-.016.02-.016.03 0 .01-.005.016-.015.016-.11.148-.278.222-.505.222-.267.02-.47-.064-.608-.252-.15-.188-.285-.39-.408-.608-.125-.217-.26-.43-.41-.638-.177-.237-.372-.492-.585-.764-.213-.272-.448-.56-.705-.867-.1-.11-.237-.308-.415-.595l-.52-.83-.385-.6c-.128-.204-.262-.4-.4-.587-.06-.07-.124-.146-.193-.23-.07-.084-.144-.156-.223-.215-.08-.06-.168-.104-.267-.134-.1-.03-.197-.03-.296 0-.266.078-.39.35-.37.815.01.336.017.653.022.95.005.296.017.573.037.83.02.208.016.416-.008.623-.025.208-.037.41-.037.608v1.157c0 .248-.008.47-.023.668-.014.2-.032.377-.052.535zm16.822-8.01l.044.045c.11.128.21.27.304.43.094.158.18.336.26.534.06.138.126.27.2.393.074.123.136.254.185.393.08.217.14.415.178.593.04.178.065.346.075.504.01.16.012.33.007.512s-.022.387-.052.615c-.02.197-.03.393-.03.586 0 .193-.02.39-.06.587-.048.257-.125.51-.23.763-.103.253-.224.492-.362.72-.246.395-.593.756-1.038 1.083l-.118.06c-.11.078-.203.123-.282.133-.11.05-.213.09-.312.126-.098.034-.192.06-.28.08-.516.12-1.045.172-1.59.157-.543-.016-1.072-.018-1.586-.008-.188 0-.415.002-.682.007-.267.004-.48-.043-.638-.142-.138-.07-.227-.203-.267-.4-.01-.04-.015-.124-.015-.253 0-.474.005-.946.015-1.416.01-.47.025-.943.045-1.418.02-.237.014-.482-.015-.734-.03-.252-.045-.502-.045-.75V102.48c0-.593.074-.98.223-1.157.158-.168.4-.247.727-.237.168.01.323.012.467.007.142-.005.268-.007.377-.007.376-.01.76-.005 1.15.015l1.21.06c.81.05 1.52.346 2.135.89v.015zm-1.944.045h-.014c-.14-.02-.31-.03-.512-.03-.203 0-.438.01-.705.03-.484.03-.86.024-1.127-.016-.435-.07-.702-.07-.8 0-.15.11-.224.322-.224.638 0 .317.005.628.015.935.01.306.006.608-.014.905-.05.74-.066 1.476-.052 2.202.015.727.023 1.452.023 2.174 0 .168.06.3.178.4.118.11.35.14.697.09.01 0 .022-.003.037-.008.014-.005.026-.008.036-.008.198-.01.383-.012.556-.007.173.005.34.012.497.022.593.04 1.16.01 1.705-.09.554-.118.984-.478 1.29-1.082.14-.267.26-.524.364-.77.103-.248.184-.498.244-.75s.096-.512.11-.78c.016-.266.008-.558-.02-.874-.06-.612-.258-1.22-.595-1.824-.17-.286-.394-.524-.676-.712-.28-.188-.615-.33-1-.43l-.016-.015zm12.876 7.505c.12.08.178.188.178.326.01.328-.183.49-.58.49-.71 0-1.423-.01-2.135-.03-.712-.02-1.424-.004-2.136.046-.562.03-.904-.124-1.022-.46-.06-.148-.09-.38-.09-.697.01-.17.018-.315.023-.44.006-.122.008-.23.008-.318.01-.217.023-.442.038-.675.014-.232.017-.462.007-.69l-.06-1.386c-.02-.45-.024-.912-.014-1.386.01-.228.02-.453.028-.675.01-.224.015-.454.015-.69.01-.288.013-.552.008-.795-.004-.242-.017-.462-.036-.66-.02-.267.103-.425.37-.474.386-.078.594.15.623.683.02.227.035.447.045.66.01.213.025.418.044.616v.384l-.06.564c-.02.158-.036.316-.05.475-.016.158-.028.31-.038.46-.02.375-.03.704-.03.986 0 .28.005.516.015.704.02.237.032.484.037.74.005.258-.002.53-.022.817-.02.436.04.723.178.86.11.13.34.21.697.24.178.02.354.033.527.043.173.01.348.025.526.045.267.03.54.032.816.007.277-.025.554-.017.83.022.18.02.394.037.646.052.252.014.458.066.616.155zm6.423.742c-.198-.06-.398-.136-.6-.23-.204-.094-.4-.203-.594-.326-.193-.123-.374-.262-.542-.415-.167-.153-.31-.32-.43-.497-.157-.247-.27-.502-.34-.764s-.168-.53-.297-.808c-.1-.218-.153-.455-.163-.712-.01-.12-.022-.24-.037-.364-.015-.123-.022-.244-.022-.363-.01-.12-.017-.222-.02-.31-.006-.09-.01-.165-.01-.224 0-.188.013-.383.038-.586.025-.203.062-.413.11-.63.01-.07.04-.16.09-.267.1-.297.225-.576.38-.838.152-.262.327-.507.525-.735.386-.435.925-.82 1.617-1.157.317-.138.648-.202.994-.193.218.02.435.05.653.09.178.03.333.05.467.066.133.015.25.032.348.052.762.09 1.434.425 2.018 1.01.128.127.25.268.363.422.114.153.225.318.334.496l.074.12c.01.03.02.054.03.073l.03.06c.17.395.322.89.46 1.483.13.553.15 1.062.06 1.527-.06.267-.134.524-.223.77-.09.248-.168.496-.237.743-.386 1.325-1.256 2.16-2.61 2.507l-.12.03c-.08.02-.178.04-.296.06-.12.02-.257.038-.416.058-.257.03-.52.035-.793.015-.272-.02-.55-.074-.838-.163zm1.498-8.485c-.534 0-1.016.064-1.446.193-.432.128-.82.366-1.166.712-.474.474-.776 1-.905 1.58-.13.578-.124 1.223.014 1.935l.134.727c.02.138.04.25.06.333.02.084.034.136.044.156.06.216.178.424.356.622.178.197.34.37.49.52.078.088.157.174.236.258.08.084.164.16.253.23.148.13.395.248.74.356h.016c.188.05.398.067.63.052.233-.015.493-.057.78-.126.138-.04.28-.067.422-.08.143-.016.29-.043.438-.083.366-.09.672-.288.92-.594h.014v-.015c.158-.187.292-.424.4-.71.1-.288.174-.47.223-.55.495-.97.57-2.017.223-3.145l-.015-.015c-.04-.108-.08-.212-.12-.31-.038-.1-.093-.2-.162-.298-.386-.583-.846-1.003-1.38-1.26-.02-.01-.064-.035-.133-.075-.07-.04-.168-.1-.297-.178-.178-.11-.43-.19-.756-.238h-.015zm13.884-.222c.207.207.373.435.496.682l.378.756c.14.287.18.576.126.868-.054.292-.215.576-.482.853-.207.217-.553.39-1.038.518-.178.05-.368.102-.57.156-.204.054-.345.17-.424.35-.06.167-.044.34.045.518.1.188.18.34.238.46.06.118.11.207.148.267.05.097.114.21.193.332.078.124.172.265.28.423.228.317.468.613.72.89.253.277.507.544.764.8l.075.075c.216.218.22.43.013.638-.227.228-.445.233-.652.015l-.444-.445-.356-.386c-.238-.296-.46-.608-.668-.934-.148-.218-.3-.428-.452-.63-.154-.203-.3-.423-.438-.66-.395-.713-.885-1.182-1.468-1.41-.623-.227-1.078-.138-1.365.267-.09.14-.135.292-.135.46V109.927c0 .296-.153.45-.46.46-.306-.01-.46-.198-.46-.564 0-.228.008-.463.023-.705.015-.242.027-.502.037-.78.01-.187.008-.38-.007-.577-.015-.197-.023-.39-.023-.578 0-.188.005-.375.015-.563.01-.19.015-.377.015-.565.01-.445-.005-.905-.044-1.38 0-.326.008-.657.023-.993.015-.337.017-.678.007-1.024-.01-.178-.015-.378-.015-.6 0-.223.03-.423.09-.6.177-.24.598-.357 1.26-.357h.46c.356 0 .715.015 1.076.045.362.03.72.035 1.076.015.82-.04 1.47.124 1.943.49zm-4.17 3.203c.377.01.708.015.995.015.287 0 .53-.01.727-.03.187-.02.398-.044.63-.074.232-.03.487-.07.764-.118.564-.12.93-.38 1.098-.786.07-.15.094-.312.074-.49-.02-.178-.077-.34-.17-.49-.095-.148-.213-.274-.357-.378-.142-.103-.298-.192-.466-.267-.168-.074-.33-.126-.49-.155-.415-.08-.828-.112-1.238-.097-.41.015-.823.013-1.24-.007-.078 0-.155-.003-.23-.008-.073-.005-.15-.007-.23-.007-.206-.01-.365.045-.473.164-.09.1-.124.237-.104.415.01.05.014.153.014.31-.01.15-.027.293-.052.43-.025.14-.042.278-.052.416-.06.386-.015.673.133.86.13.18.35.278.668.297zm15.398-2.788l.045.044c.108.128.21.27.304.43.094.158.18.336.26.534.06.138.125.27.2.393.074.123.136.254.185.393.08.217.138.415.178.593.04.178.064.346.074.504.01.16.012.33.008.512-.005.182-.023.387-.052.615-.02.197-.03.393-.03.586 0 .193-.02.39-.06.587-.05.257-.125.51-.23.763-.103.253-.224.492-.363.72-.247.395-.593.756-1.038 1.083l-.12.06c-.11.078-.202.123-.282.133-.108.05-.212.09-.31.126-.1.034-.194.06-.283.08-.514.12-1.043.172-1.587.157-.544-.016-1.073-.018-1.587-.008-.187 0-.415.002-.682.007-.267.004-.48-.043-.637-.142-.138-.07-.227-.203-.266-.4-.01-.04-.015-.124-.015-.253 0-.474.004-.946.014-1.416s.024-.943.044-1.418c.02-.237.015-.482-.015-.734s-.044-.502-.044-.75V102.48c0-.593.073-.98.22-1.157.16-.168.402-.247.728-.237.168.01.324.012.467.007.144-.005.27-.007.38-.007.374-.01.758-.005 1.148.015l1.21.06c.81.05 1.522.346 2.135.89v.015zm-1.943.044h-.015c-.138-.02-.31-.03-.512-.03s-.437.01-.704.03c-.485.03-.86.024-1.128-.016-.435-.07-.702-.07-.8 0-.15.11-.223.322-.223.638 0 .317.005.628.015.935.01.306.005.608-.015.905-.05.74-.067 1.476-.052 2.202.016.727.023 1.452.023 2.174 0 .168.06.3.178.4.12.11.352.14.698.09.01 0 .023-.003.037-.008.015-.005.028-.008.038-.008.197-.01.383-.012.556-.007.172.005.338.012.496.022.593.04 1.162.01 1.706-.09.553-.118.984-.478 1.29-1.082.14-.267.26-.524.364-.77.103-.248.185-.498.244-.75.06-.252.097-.512.112-.78.014-.266.007-.558-.023-.874-.06-.612-.258-1.22-.594-1.824-.168-.286-.393-.524-.675-.712-.28-.188-.615-.33-1-.43l-.015-.015zm13.558 6.94c-.168.21-.33.392-.482.55-.153.158-.313.294-.48.408-.17.114-.355.208-.558.282-.202.074-.432.126-.69.156-.128.02-.26.032-.4.037-.138.005-.287-.003-.445-.022-.217-.02-.43-.03-.638-.03-.208 0-.42-.024-.64-.073-.473-.11-.87-.272-1.185-.49-.317-.217-.56-.5-.727-.845-.218-.475-.094-.722.37-.742.08 0 .17.057.275.17.104.114.186.2.245.26.208.208.326.322.356.34h.015v.016c.483.336 1.126.505 1.927.505h.03c.336 0 .766-.07 1.29-.207.514-.13.856-.39 1.024-.786.09-.238.09-.495 0-.772v-.014c-.246-.524-.726-.875-1.438-1.053l-1.825-.474c-.257-.06-.568-.183-.934-.37-.188-.1-.35-.19-.49-.268-.138-.08-.252-.158-.34-.237-.406-.297-.644-.594-.713-.89-.01-.05-.015-.12-.015-.208v-.326c0-.14.01-.275.03-.408l.06-.423c.06-.455.25-.86.578-1.217.148-.148.33-.274.54-.378.214-.104.42-.2.617-.29.277-.128.566-.194.868-.2.3-.004.6-.002.897.008.97.03 1.726.37 2.27 1.024.247.306.34.558.28.756l-.102.09c-.16.078-.347.024-.564-.164-.06-.04-.115-.084-.164-.134l-.15-.148-.19-.156c-.13-.103-.22-.155-.268-.155l-.03-.03h-.045c-.366-.11-.74-.174-1.12-.194-.38-.02-.773.015-1.18.104-.483.11-.854.31-1.11.6-.258.292-.387.68-.387 1.165v.03l.015.03c.04.613.515 1.048 1.425 1.305l.43.12 1.098.37c.168.06.336.125.504.2.168.074.346.15.534.23.278.128.535.252.772.37.238.12.455.243.653.37.138.09.245.2.32.328.073.128.123.267.147.415.025.148.035.302.03.46-.005.158-.022.3-.052.43-.02.11-.052.212-.096.31-.045.1-.092.19-.14.268z" fill-rule="nonzero" fill="#FFF"/><g fill-rule="nonzero" fill="#FFF"><path d="M112.48 86.06c-1.388 0-2.477 1.09-2.477 2.378 0 1.09-.99 1.98-2.18 1.98-1.187 0-2.177-.89-2.177-1.98 0-1.287-1.09-2.377-2.476-2.377s-2.476 1.09-2.476 2.378c0 3.664 4.754 7.23 7.13 8.516 2.377-1.287 7.13-4.852 7.13-8.516 0-1.287-1.09-2.377-2.475-2.377z"/><path d="M107.824 72.494c-9.605 0-17.33 7.725-17.33 17.33 0 9.606 7.725 17.33 17.33 17.33 9.606 0 17.33-7.724 17.33-17.33 0-9.605-7.724-17.33-17.33-17.33zm.793 28.62h-.1-.1c-.197 0-.395.098-.593.098-.198 0-.396 0-.594-.1h-.1-.098c-2.674-1.088-10.596-6.138-10.596-12.674 0-3.466 3.07-6.338 6.734-6.338 1.782 0 3.367.693 4.654 1.783 1.19-1.09 2.872-1.783 4.655-1.783 3.762 0 6.732 2.872 6.732 6.338 0 6.536-7.922 11.586-10.595 12.675z"/><path d="M105.25 69.127V53.68h10.298L77.225 21.593 39 53.68h10.893v32.678H70.69V61.6h13.863l.198 24.758h2.576c1.683-8.912 8.813-15.844 17.924-17.23z"/></g></g></svg>