
<svg width="495px" height="87px" viewBox="0 0 495 87" version="1.1" xmlns="http://www.w3.org/2000/svg" xmlns:xlink="http://www.w3.org/1999/xlink">
    <!-- Generator: Sketch 43.2 (39069) - http://www.bohemiancoding.com/sketch -->
    <desc>Created with Sketch.</desc>
    <defs></defs>
    <g id="Page-1" stroke="none" stroke-width="1" fill="none" fill-rule="evenodd">
        <g id="header-logo" fill-rule="nonzero" fill="#FFFFFF">
            <path d="M141.788,25.648 C140.655,23.835 139.068,22.498 137.028,21.636 C135.804,21.136 134.568,20.876 133.322,20.854 C132.075,20.831 130.885,21.034 129.752,21.466 C128.619,21.896 127.576,22.509 126.624,23.302 C125.672,24.095 124.901,25.059 124.312,26.192 C123.904,26.962 123.575,27.882 123.326,28.946 C123.076,30.011 122.986,31.054 123.054,32.074 C123.122,33.094 123.384,34.024 123.836,34.862 C124.289,35.702 124.992,36.324 125.944,36.732 C126.896,37.095 127.824,37.14 128.732,36.868 C129.639,36.596 130.387,36.098 130.976,35.372 C131.339,34.872 131.599,34.295 131.758,33.638 C131.918,32.981 131.951,32.335 131.86,31.7 C132.948,31.337 133.843,31.405 134.546,31.904 C135.249,32.404 135.646,33.241 135.736,34.42 C135.826,35.236 135.713,35.995 135.396,36.698 C135.079,37.401 134.648,38.035 134.104,38.602 C133.56,39.169 132.937,39.645 132.234,40.03 C131.531,40.415 130.84,40.7 130.16,40.88 C129.253,41.107 128.3,41.13 127.304,40.948 C126.307,40.768 125.4,40.404 124.584,39.86 C123.587,39.225 122.804,38.432 122.238,37.48 C121.671,36.528 121.263,35.485 121.014,34.352 C120.764,33.219 120.664,32.074 120.708,30.918 C120.753,29.762 120.888,28.663 121.116,27.62 C121.569,25.716 122.363,24.027 123.496,22.554 C124.629,21.081 125.978,19.879 127.542,18.95 C129.106,18.02 130.817,17.397 132.676,17.08 C134.536,16.763 136.416,16.808 138.32,17.216 C139.725,17.488 141.063,17.964 142.332,18.644 C143.602,19.324 144.757,20.117 145.8,21.024 L153.824,17.012 L154.912,19.052 C154.096,19.232 153.392,19.607 152.804,20.174 C152.214,20.741 151.614,21.557 151.002,22.622 C150.39,23.687 149.755,24.979 149.098,26.498 C148.441,28.018 147.636,29.818 146.684,31.904 C145.551,34.397 144.429,36.879 143.318,39.35 C142.208,41.82 141.063,44.28 139.884,46.728 L145.256,48.156 C145.483,47.612 145.709,47.091 145.936,46.592 L146.616,45.096 C147.84,42.466 149.346,39.646 151.138,36.63 C152.928,33.615 154.946,30.77 157.19,28.096 C159.434,25.421 161.916,23.076 164.636,21.058 C167.356,19.041 170.256,17.715 173.34,17.08 L174.156,19.256 C171.889,20.299 169.793,21.726 167.866,23.54 C165.939,25.353 164.16,27.37 162.528,29.592 C160.896,31.812 159.411,34.114 158.074,36.494 C156.737,38.874 155.524,41.107 154.436,43.192 C154.073,43.827 153.609,44.699 153.042,45.81 C152.475,46.92 151.875,48.18 151.24,49.584 C152.827,49.811 154.266,49.914 155.558,49.89 C156.85,49.867 157.948,49.54 158.856,48.904 C159.083,49.131 159.276,49.448 159.434,49.856 C159.594,50.264 159.764,50.626 159.944,50.944 C158.357,51.714 156.737,52.179 155.082,52.338 C153.427,52.498 151.739,52.531 150.016,52.44 C149.336,54.163 148.736,55.908 148.214,57.676 C147.694,59.444 147.421,61.076 147.398,62.572 C147.375,64.068 147.658,65.36 148.248,66.448 C148.838,67.536 149.88,68.238 151.376,68.556 C151.376,69.281 151.036,69.826 150.356,70.188 C149.676,70.551 148.894,70.653 148.01,70.494 C147.126,70.334 146.22,69.894 145.29,69.168 C144.36,68.443 143.647,67.378 143.148,65.972 C142.378,63.752 142.105,61.405 142.332,58.934 C142.559,56.464 143.08,54.049 143.896,51.692 C142.853,51.512 141.846,51.342 140.87,51.182 C139.895,51.022 138.91,50.899 137.912,50.808 C137.685,51.216 137.47,51.624 137.266,52.032 C137.062,52.44 136.846,52.848 136.62,53.256 C135.85,54.706 135.033,56.136 134.172,57.54 C133.312,58.945 132.37,60.294 131.35,61.586 C130.33,62.878 129.23,64.091 128.052,65.224 C126.872,66.357 125.559,67.354 124.108,68.216 C122.928,68.896 121.535,69.496 119.926,70.018 C118.316,70.538 116.696,70.811 115.064,70.834 C113.432,70.857 111.902,70.562 110.474,69.95 C109.046,69.338 107.924,68.26 107.108,66.72 C106.338,65.27 105.918,63.694 105.85,61.994 C105.782,60.294 105.986,58.604 106.462,56.928 C106.938,55.251 107.662,53.653 108.638,52.134 C109.613,50.614 110.758,49.334 112.072,48.292 C113.387,47.249 114.826,46.49 116.39,46.014 C117.954,45.538 119.575,45.481 121.252,45.844 C122.022,46.024 122.782,46.444 123.53,47.102 C124.278,47.759 124.697,48.472 124.788,49.244 C125.105,48.292 125.57,47.534 126.182,46.966 C126.794,46.399 127.497,45.991 128.29,45.742 C129.083,45.492 129.967,45.357 130.942,45.334 C131.917,45.311 132.925,45.368 133.968,45.504 C135.056,43.464 136.088,41.434 137.062,39.418 C138.037,37.401 139.012,35.44 139.986,33.536 C140.961,31.632 141.969,29.796 143.012,28.028 C144.055,26.26 145.188,24.628 146.412,23.132 L141.788,25.648 L141.788,25.648 Z M124.652,53.188 C124.199,52.598 123.609,52.168 122.884,51.896 C122.159,51.624 121.388,51.454 120.572,51.386 C119.756,51.318 118.952,51.341 118.158,51.454 C117.365,51.567 116.696,51.714 116.152,51.896 C114.384,52.44 112.775,53.596 111.324,55.364 C110.689,56.18 110.157,57.224 109.726,58.492 C109.296,59.762 109.056,61.032 109.012,62.3 C108.967,63.57 109.172,64.737 109.624,65.802 C110.077,66.867 110.871,67.582 112.004,67.944 C113.908,68.579 115.778,68.444 117.614,67.536 C119.45,66.629 121.184,65.292 122.816,63.524 C124.448,61.756 125.978,59.716 127.406,57.404 C128.834,55.092 130.116,52.871 131.248,50.74 C130.068,50.92 128.936,51.193 127.848,51.556 C126.76,51.919 125.695,52.463 124.652,53.188 L124.652,53.188 Z M180.888,45.64 L181.772,47.476 C180.548,48.246 179.312,48.836 178.066,49.244 C176.819,49.652 175.606,49.901 174.428,49.992 C174.338,50.355 174.213,50.695 174.054,51.012 C173.894,51.329 173.748,51.669 173.612,52.032 C172.796,53.755 171.787,55.455 170.586,57.132 C169.386,58.809 168.081,60.237 166.676,61.416 C165.271,62.596 163.831,63.422 162.358,63.898 C160.885,64.374 159.445,64.295 158.04,63.66 C156.59,62.98 155.717,61.597 155.422,59.512 C155.127,57.427 155.682,54.979 157.088,52.168 C158.403,49.493 159.785,47.238 161.236,45.402 C162.686,43.566 164.126,42.127 165.554,41.084 C166.982,40.041 168.342,39.384 169.634,39.112 C170.926,38.84 172.094,38.932 173.136,39.384 C173.589,39.611 174.02,39.962 174.428,40.438 C174.836,40.914 175.04,41.448 175.04,42.036 C174.36,41.492 173.555,41.186 172.626,41.118 C171.696,41.05 170.711,41.345 169.668,42.002 C168.625,42.659 167.538,43.702 166.404,45.13 C165.271,46.558 164.137,48.496 163.004,50.944 C162.007,53.029 161.497,54.831 161.474,56.35 C161.451,57.87 161.916,58.877 162.868,59.376 C163.321,59.648 163.898,59.603 164.602,59.24 C165.305,58.877 166.042,58.3 166.812,57.506 C167.582,56.713 168.342,55.761 169.09,54.65 C169.838,53.54 170.484,52.395 171.028,51.216 L171.64,49.72 C170.688,49.312 170.03,48.677 169.668,47.816 C169.305,46.956 169.181,46.106 169.294,45.266 C169.407,44.426 169.747,43.679 170.314,43.022 C170.881,42.365 171.664,42.036 172.66,42.036 C173.884,42.036 174.71,42.58 175.142,43.668 C175.572,44.756 175.584,46.093 175.176,47.68 C176.219,47.544 177.284,47.295 178.372,46.932 C179.46,46.569 180.299,46.139 180.888,45.64 L180.888,45.64 Z M204.212,51.556 L205.776,53.188 C204.189,56.678 202.523,59.388 200.778,61.314 C199.033,63.241 197.14,64.204 195.1,64.204 C194.057,64.204 193.23,63.954 192.618,63.456 C192.006,62.956 191.711,62.119 191.734,60.94 C191.757,59.76 192.187,58.21 193.026,56.282 C193.866,54.355 195.213,51.987 197.072,49.176 C198.069,47.726 198.772,46.513 199.18,45.538 C199.588,44.563 199.543,44.076 199.044,44.076 C198.772,44.076 198.387,44.269 197.888,44.654 C197.388,45.039 196.834,45.549 196.222,46.184 C195.61,46.819 194.987,47.567 194.352,48.428 C193.717,49.288 193.128,50.218 192.584,51.216 C192.04,52.213 191.417,53.426 190.714,54.854 C190.011,56.282 189.344,57.676 188.708,59.036 C187.983,60.623 187.258,62.276 186.532,64 L180.956,64 C181.999,61.824 182.973,59.784 183.88,57.88 C184.288,57.064 184.685,56.237 185.07,55.398 C185.455,54.558 185.84,53.743 186.226,52.95 L187.28,50.774 C187.597,50.117 187.87,49.584 188.096,49.176 C189.773,45.912 190.136,44.28 189.184,44.28 C188.731,44.28 188.096,44.78 187.28,45.776 C186.464,46.773 185.546,48.111 184.526,49.788 C183.506,51.465 182.418,53.381 181.262,55.534 C180.106,57.687 178.962,59.92 177.828,62.232 L177.828,62.164 L176.944,64 L171.368,64 L182.724,39.996 L188.3,39.996 L186.668,43.396 C187.848,42.172 188.98,41.299 190.068,40.778 C191.156,40.258 192.312,39.996 193.536,39.996 C194.352,39.996 194.986,40.302 195.44,40.914 C195.893,41.526 196.075,42.331 195.984,43.328 C198.432,41.108 200.564,39.996 202.376,39.996 C202.966,39.996 203.476,40.156 203.906,40.472 C204.336,40.789 204.643,41.232 204.824,41.798 C205.004,42.365 205.039,43.033 204.926,43.804 C204.813,44.574 204.506,45.391 204.008,46.252 C202.376,49.152 201.061,51.499 200.064,53.29 C199.067,55.08 198.33,56.475 197.854,57.472 C197.378,58.469 197.129,59.138 197.106,59.478 C197.083,59.818 197.208,59.988 197.48,59.988 C198.387,59.988 199.44,59.218 200.642,57.676 C201.842,56.136 203.032,54.096 204.212,51.556 L204.212,51.556 Z M222.844,51.556 L224.408,53.188 C223.184,55.318 221.756,57.211 220.124,58.866 C218.492,60.521 216.792,61.846 215.024,62.844 C213.256,63.841 211.511,64.442 209.788,64.646 C208.065,64.85 206.524,64.521 205.164,63.66 C204.439,63.207 203.861,62.572 203.43,61.756 C203,60.94 202.74,59.976 202.648,58.866 C202.558,57.756 202.648,56.554 202.92,55.262 C203.192,53.97 203.668,52.622 204.348,51.216 C205.663,48.541 207.078,46.343 208.598,44.62 C210.118,42.897 211.601,41.583 213.052,40.676 C214.502,39.769 215.862,39.226 217.132,39.044 C218.402,38.864 219.444,38.976 220.26,39.384 C220.94,39.747 221.473,40.279 221.858,40.982 C222.243,41.685 222.458,42.489 222.504,43.396 C222.549,44.303 222.424,45.289 222.13,46.354 C221.835,47.419 221.325,48.474 220.6,49.516 C219.603,50.966 218.503,52.134 217.302,53.018 C216.102,53.902 214.932,54.491 213.8,54.786 C212.667,55.081 211.658,55.103 210.774,54.854 C209.89,54.604 209.244,54.072 208.836,53.256 C208.428,54.752 208.281,56.078 208.394,57.234 C208.507,58.39 209.017,59.172 209.924,59.58 C210.649,59.943 211.601,60 212.78,59.75 C213.96,59.5 215.16,59.002 216.384,58.254 C217.608,57.506 218.798,56.554 219.954,55.398 C221.11,54.242 222.074,52.961 222.844,51.556 Z M216.928,47.408 C218.108,46.138 218.878,44.948 219.24,43.838 C219.603,42.728 219.603,42.058 219.24,41.832 C218.696,41.469 218.016,41.469 217.2,41.832 C216.384,42.195 215.545,42.784 214.684,43.6 C213.824,44.416 212.984,45.39 212.168,46.524 C211.352,47.657 210.672,48.814 210.128,49.992 C209.901,50.627 209.968,51.022 210.332,51.182 C210.695,51.342 211.216,51.295 211.896,51.046 C212.576,50.796 213.358,50.366 214.242,49.754 C215.126,49.142 216.022,48.36 216.928,47.408 L216.928,47.408 Z M270.308,32.04 C271.26,32.312 272.178,32.38 273.062,32.244 C273.946,32.108 274.785,31.824 275.578,31.394 C276.371,30.964 277.063,30.384 277.652,29.66 C278.242,28.935 278.695,28.12 279.012,27.212 C279.512,25.762 279.579,24.412 279.216,23.166 C278.853,21.919 277.946,20.979 276.496,20.344 C275.68,19.981 274.83,19.844 273.946,19.936 C273.062,20.026 272.212,20.276 271.396,20.684 C270.58,21.092 269.809,21.636 269.084,22.316 C268.359,22.996 267.769,23.721 267.316,24.492 C265.956,26.668 265.436,28.776 265.752,30.816 C266.069,32.856 266.84,34.896 268.064,36.936 C269.334,39.066 270.41,41.254 271.294,43.498 C272.178,45.742 272.744,47.998 272.994,50.264 C273.244,52.531 273.107,54.809 272.586,57.098 C272.066,59.388 270.988,61.62 269.356,63.796 C268.313,65.201 267.123,66.391 265.786,67.366 C264.449,68.341 263.009,69.111 261.468,69.678 C259.928,70.245 258.328,70.596 256.674,70.732 C255.019,70.868 253.354,70.755 251.676,70.392 C248.639,69.802 246.246,68.465 244.502,66.38 C242.757,64.295 241.657,61.926 241.204,59.274 C240.751,56.622 240.921,53.924 241.714,51.182 C242.507,48.439 243.924,46.092 245.964,44.144 C247.234,42.964 248.604,42.036 250.078,41.356 C251.551,40.676 252.945,40.359 254.26,40.404 C255.575,40.404 256.697,40.619 257.626,41.05 C258.556,41.48 259.269,41.945 259.768,42.444 C261.218,43.894 261.842,44.984 261.638,45.708 C261.434,46.433 260.652,46.548 259.292,46.048 C257.887,45.548 256.345,45.548 254.668,46.048 C252.991,46.548 251.358,47.453 249.772,48.768 C248.865,49.538 248.015,50.468 247.222,51.556 C246.429,52.644 245.782,53.891 245.284,55.296 C244.784,56.701 244.536,58.209 244.536,59.818 C244.536,61.428 244.966,62.912 245.828,64.272 C247.008,66.132 248.548,67.322 250.452,67.842 C252.356,68.362 254.305,68.409 256.3,67.978 C258.295,67.548 260.165,66.731 261.91,65.53 C263.655,64.33 264.96,62.935 265.82,61.348 C266.772,59.671 267.35,57.925 267.554,56.112 C267.758,54.299 267.714,52.497 267.418,50.706 C267.123,48.916 266.591,47.159 265.82,45.436 C265.05,43.713 264.143,42.104 263.1,40.608 C262.148,39.112 261.525,37.446 261.23,35.61 C260.935,33.774 260.924,31.95 261.196,30.136 C261.468,28.323 262.001,26.589 262.794,24.934 C263.587,23.279 264.619,21.864 265.888,20.684 C267.158,19.504 268.653,18.634 270.376,18.066 C272.099,17.499 274.003,17.396 276.088,17.76 C277.403,17.987 278.581,18.44 279.624,19.12 C280.667,19.8 281.528,20.64 282.208,21.636 C282.888,22.633 283.353,23.756 283.602,25.002 C283.852,26.249 283.84,27.552 283.568,28.912 C283.205,30.772 282.503,32.369 281.46,33.706 C280.417,35.043 279.24,36.029 277.924,36.664 C276.881,37.164 275.714,37.401 274.422,37.378 C273.13,37.355 272.032,37.004 271.124,36.324 C270.624,35.916 270.251,35.338 270.002,34.59 C269.752,33.842 269.855,32.992 270.308,32.04 L270.308,32.04 Z M299.616,39.996 L293.36,55.024 C292.68,56.611 292.33,57.869 292.306,58.798 C292.283,59.728 292.636,60.192 293.36,60.192 C293.904,60.192 294.54,59.739 295.264,58.832 C295.989,57.925 296.737,56.826 297.508,55.534 C298.278,54.242 299.004,52.871 299.684,51.42 C300.364,49.97 300.908,48.7 301.316,47.612 C300.772,47.068 300.466,46.332 300.398,45.402 C300.33,44.472 300.455,43.577 300.772,42.716 C301.089,41.856 301.554,41.106 302.166,40.472 C302.778,39.837 303.516,39.52 304.376,39.52 C305.146,39.52 305.726,39.713 306.11,40.098 C306.495,40.483 306.756,40.971 306.892,41.56 C307.028,42.15 307.039,42.818 306.926,43.566 C306.813,44.314 306.666,45.028 306.484,45.708 C307.799,45.3 309.124,44.79 310.462,44.178 C311.799,43.566 312.762,43.033 313.352,42.58 L314.236,44.416 C313.056,45.141 311.663,45.866 310.054,46.592 C308.444,47.317 306.937,47.839 305.532,48.156 C304.672,50.106 303.652,52.032 302.472,53.936 C301.292,55.84 300.047,57.551 298.732,59.07 C297.417,60.59 296.08,61.824 294.72,62.776 C293.36,63.728 292.045,64.204 290.776,64.204 C289.28,64.204 288.146,63.694 287.376,62.674 C286.606,61.654 286.401,60.169 286.764,58.22 C285.404,59.943 284.054,61.37 282.718,62.504 C281.381,63.637 280.123,64.204 278.944,64.204 C278.037,64.204 277.289,63.977 276.7,63.524 C276.11,63.071 275.748,62.344 275.612,61.348 C275.476,60.351 275.602,59.104 275.986,57.608 C276.371,56.112 277.108,54.298 278.196,52.168 C279.284,50.038 280.246,48.213 281.086,46.694 C281.926,45.174 282.661,43.917 283.296,42.92 C284.021,41.74 284.656,40.767 285.2,39.996 L290.708,39.996 C289.848,41.356 289.008,42.739 288.192,44.144 C287.467,45.324 286.719,46.626 285.948,48.054 C285.178,49.482 284.475,50.854 283.84,52.168 C282.616,54.752 281.88,56.565 281.63,57.608 C281.38,58.651 281.55,59.172 282.14,59.172 C282.412,59.172 282.877,58.809 283.534,58.084 C284.191,57.359 284.939,56.429 285.778,55.296 C286.618,54.163 287.501,52.882 288.43,51.454 C289.36,50.026 290.266,48.598 291.15,47.17 C292.034,45.742 292.827,44.393 293.53,43.124 C294.233,41.854 294.788,40.812 295.196,39.996 L299.616,39.996 L299.616,39.996 Z M325.592,51.556 L327.156,53.188 C325.932,55.318 324.504,57.211 322.872,58.866 C321.24,60.521 319.54,61.846 317.772,62.844 C316.004,63.841 314.259,64.442 312.536,64.646 C310.813,64.85 309.272,64.521 307.912,63.66 C307.187,63.207 306.609,62.572 306.178,61.756 C305.748,60.94 305.488,59.976 305.396,58.866 C305.306,57.756 305.396,56.554 305.668,55.262 C305.94,53.97 306.416,52.622 307.096,51.216 C308.411,48.541 309.826,46.343 311.346,44.62 C312.866,42.897 314.349,41.583 315.8,40.676 C317.25,39.769 318.61,39.226 319.88,39.044 C321.15,38.864 322.192,38.976 323.008,39.384 C323.688,39.747 324.221,40.279 324.606,40.982 C324.991,41.685 325.206,42.489 325.252,43.396 C325.297,44.303 325.172,45.289 324.878,46.354 C324.583,47.419 324.073,48.474 323.348,49.516 C322.351,50.966 321.251,52.134 320.05,53.018 C318.85,53.902 317.68,54.491 316.548,54.786 C315.415,55.081 314.406,55.103 313.522,54.854 C312.638,54.604 311.992,54.072 311.584,53.256 C311.176,54.752 311.029,56.078 311.142,57.234 C311.255,58.39 311.765,59.172 312.672,59.58 C313.397,59.943 314.349,60 315.528,59.75 C316.708,59.5 317.908,59.002 319.132,58.254 C320.356,57.506 321.546,56.554 322.702,55.398 C323.858,54.242 324.822,52.961 325.592,51.556 L325.592,51.556 Z M319.676,47.408 C320.856,46.138 321.626,44.948 321.988,43.838 C322.351,42.728 322.351,42.058 321.988,41.832 C321.444,41.469 320.764,41.469 319.948,41.832 C319.132,42.195 318.293,42.784 317.432,43.6 C316.572,44.416 315.732,45.39 314.916,46.524 C314.1,47.657 313.42,48.814 312.876,49.992 C312.649,50.627 312.716,51.022 313.08,51.182 C313.443,51.342 313.964,51.295 314.644,51.046 C315.324,50.796 316.106,50.366 316.99,49.754 C317.874,49.142 318.77,48.36 319.676,47.408 L319.676,47.408 Z M344.224,51.556 L345.788,53.188 C344.564,55.318 343.136,57.211 341.504,58.866 C339.872,60.521 338.172,61.846 336.404,62.844 C334.636,63.841 332.891,64.442 331.168,64.646 C329.445,64.85 327.904,64.521 326.544,63.66 C325.819,63.207 325.241,62.572 324.81,61.756 C324.38,60.94 324.12,59.976 324.028,58.866 C323.938,57.756 324.028,56.554 324.3,55.262 C324.572,53.97 325.048,52.622 325.728,51.216 C327.043,48.541 328.458,46.343 329.978,44.62 C331.498,42.897 332.981,41.583 334.432,40.676 C335.882,39.769 337.242,39.226 338.512,39.044 C339.782,38.864 340.824,38.976 341.64,39.384 C342.32,39.747 342.853,40.279 343.238,40.982 C343.623,41.685 343.838,42.489 343.884,43.396 C343.929,44.303 343.804,45.289 343.51,46.354 C343.215,47.419 342.705,48.474 341.98,49.516 C340.983,50.966 339.883,52.134 338.682,53.018 C337.482,53.902 336.312,54.491 335.18,54.786 C334.047,55.081 333.038,55.103 332.154,54.854 C331.27,54.604 330.624,54.072 330.216,53.256 C329.808,54.752 329.661,56.078 329.774,57.234 C329.887,58.39 330.397,59.172 331.304,59.58 C332.029,59.943 332.981,60 334.16,59.75 C335.34,59.5 336.54,59.002 337.764,58.254 C338.988,57.506 340.178,56.554 341.334,55.398 C342.49,54.242 343.454,52.961 344.224,51.556 L344.224,51.556 Z M338.308,47.408 C339.488,46.138 340.258,44.948 340.62,43.838 C340.983,42.728 340.983,42.058 340.62,41.832 C340.076,41.469 339.396,41.469 338.58,41.832 C337.764,42.195 336.925,42.784 336.064,43.6 C335.204,44.416 334.364,45.39 333.548,46.524 C332.732,47.657 332.052,48.814 331.508,49.992 C331.281,50.627 331.348,51.022 331.712,51.182 C332.075,51.342 332.596,51.295 333.276,51.046 C333.956,50.796 334.738,50.366 335.622,49.754 C336.506,49.142 337.402,48.36 338.308,47.408 L338.308,47.408 Z M348.508,59.784 C348.961,59.784 349.562,59.591 350.31,59.206 C351.058,58.821 351.85,58.276 352.69,57.574 C353.53,56.871 354.356,56.01 355.172,54.99 C355.988,53.97 356.692,52.825 357.28,51.556 L358.844,53.188 C358.028,54.911 357.076,56.452 355.988,57.812 C354.9,59.172 353.755,60.328 352.554,61.28 C351.354,62.232 350.151,62.957 348.95,63.456 C347.75,63.956 346.627,64.204 345.584,64.204 C344.677,64.204 343.874,64 343.17,63.592 C342.467,63.184 341.957,62.595 341.64,61.824 C341.323,61.054 341.22,60.09 341.334,58.934 C341.447,57.778 341.844,56.474 342.524,55.024 L348.508,42.308 L345.516,42.308 L346.604,39.996 L349.596,39.996 L354.968,28.572 L361.224,27.008 L355.172,39.996 L359.932,39.996 L358.98,42.308 L354.084,42.308 L348.168,55.024 C347.398,56.611 347.103,57.801 347.284,58.594 C347.464,59.387 347.874,59.784 348.508,59.784 L348.508,59.784 Z M411.476,25.648 C410.343,23.835 408.756,22.498 406.716,21.636 C405.492,21.136 404.256,20.876 403.01,20.854 C401.763,20.831 400.573,21.034 399.44,21.466 C398.307,21.896 397.264,22.509 396.312,23.302 C395.36,24.095 394.589,25.059 394,26.192 C393.592,26.962 393.263,27.882 393.014,28.946 C392.764,30.011 392.674,31.054 392.742,32.074 C392.81,33.094 393.072,34.024 393.524,34.862 C393.977,35.702 394.68,36.324 395.632,36.732 C396.584,37.095 397.512,37.14 398.42,36.868 C399.327,36.596 400.075,36.098 400.664,35.372 C401.027,34.872 401.287,34.295 401.446,33.638 C401.606,32.981 401.639,32.335 401.548,31.7 C402.636,31.337 403.531,31.405 404.234,31.904 C404.937,32.404 405.334,33.241 405.424,34.42 C405.514,35.236 405.401,35.995 405.084,36.698 C404.767,37.401 404.336,38.035 403.792,38.602 C403.248,39.169 402.625,39.645 401.922,40.03 C401.219,40.415 400.528,40.7 399.848,40.88 C398.941,41.107 397.988,41.13 396.992,40.948 C395.995,40.768 395.088,40.404 394.272,39.86 C393.275,39.225 392.492,38.432 391.926,37.48 C391.359,36.528 390.951,35.485 390.702,34.352 C390.452,33.219 390.352,32.074 390.396,30.918 C390.441,29.762 390.576,28.663 390.804,27.62 C391.257,25.716 392.051,24.027 393.184,22.554 C394.317,21.081 395.666,19.879 397.23,18.95 C398.794,18.02 400.505,17.397 402.364,17.08 C404.224,16.763 406.104,16.808 408.008,17.216 C409.413,17.488 410.751,17.964 412.02,18.644 C413.29,19.324 414.445,20.117 415.488,21.024 L423.512,17.012 L424.6,19.052 C423.784,19.232 423.08,19.607 422.492,20.174 C421.902,20.741 421.302,21.557 420.69,22.622 C420.078,23.687 419.443,24.979 418.786,26.498 C418.129,28.018 417.324,29.818 416.372,31.904 C415.239,34.397 414.117,36.879 413.006,39.35 C411.896,41.82 410.751,44.28 409.572,46.728 L414.944,48.156 C415.171,47.612 415.397,47.091 415.624,46.592 L416.304,45.096 C417.528,42.466 419.034,39.646 420.826,36.63 C422.616,33.615 424.634,30.77 426.878,28.096 C429.122,25.421 431.604,23.076 434.324,21.058 C437.044,19.041 439.944,17.715 443.028,17.08 L443.844,19.256 C441.577,20.299 439.481,21.726 437.554,23.54 C435.627,25.353 433.848,27.37 432.216,29.592 C430.584,31.812 429.099,34.114 427.762,36.494 C426.425,38.874 425.212,41.107 424.124,43.192 C423.761,43.827 423.297,44.699 422.73,45.81 C422.163,46.92 421.563,48.18 420.928,49.584 C422.515,49.811 423.954,49.914 425.246,49.89 C426.538,49.867 427.636,49.54 428.544,48.904 C428.771,49.131 428.964,49.448 429.122,49.856 C429.282,50.264 429.452,50.626 429.632,50.944 C428.045,51.714 426.425,52.179 424.77,52.338 C423.115,52.498 421.427,52.531 419.704,52.44 C419.024,54.163 418.424,55.908 417.902,57.676 C417.382,59.444 417.109,61.076 417.086,62.572 C417.063,64.068 417.346,65.36 417.936,66.448 C418.526,67.536 419.568,68.238 421.064,68.556 C421.064,69.281 420.724,69.826 420.044,70.188 C419.364,70.551 418.582,70.653 417.698,70.494 C416.814,70.334 415.908,69.894 414.978,69.168 C414.048,68.443 413.335,67.378 412.836,65.972 C412.066,63.752 411.793,61.405 412.02,58.934 C412.247,56.464 412.768,54.049 413.584,51.692 C412.541,51.512 411.534,51.342 410.558,51.182 C409.583,51.022 408.598,50.899 407.6,50.808 C407.373,51.216 407.158,51.624 406.954,52.032 C406.75,52.44 406.534,52.848 406.308,53.256 C405.538,54.706 404.721,56.136 403.86,57.54 C403,58.945 402.058,60.294 401.038,61.586 C400.018,62.878 398.918,64.091 397.74,65.224 C396.56,66.357 395.247,67.354 393.796,68.216 C392.616,68.896 391.223,69.496 389.614,70.018 C388.004,70.538 386.384,70.811 384.752,70.834 C383.12,70.857 381.59,70.562 380.162,69.95 C378.734,69.338 377.612,68.26 376.796,66.72 C376.026,65.27 375.606,63.694 375.538,61.994 C375.47,60.294 375.674,58.604 376.15,56.928 C376.626,55.251 377.35,53.653 378.326,52.134 C379.301,50.614 380.446,49.334 381.76,48.292 C383.075,47.249 384.514,46.49 386.078,46.014 C387.642,45.538 389.263,45.481 390.94,45.844 C391.71,46.024 392.47,46.444 393.218,47.102 C393.966,47.759 394.385,48.472 394.476,49.244 C394.793,48.292 395.258,47.534 395.87,46.966 C396.482,46.399 397.185,45.991 397.978,45.742 C398.771,45.492 399.655,45.357 400.63,45.334 C401.605,45.311 402.613,45.368 403.656,45.504 C404.744,43.464 405.776,41.434 406.75,39.418 C407.725,37.401 408.7,35.44 409.674,33.536 C410.649,31.632 411.657,29.796 412.7,28.028 C413.743,26.26 414.876,24.628 416.1,23.132 L411.476,25.648 L411.476,25.648 Z M394.34,53.188 C393.887,52.598 393.297,52.168 392.572,51.896 C391.847,51.624 391.076,51.454 390.26,51.386 C389.444,51.318 388.64,51.341 387.846,51.454 C387.053,51.567 386.384,51.714 385.84,51.896 C384.072,52.44 382.463,53.596 381.012,55.364 C380.377,56.18 379.845,57.224 379.414,58.492 C378.984,59.762 378.744,61.032 378.7,62.3 C378.655,63.57 378.86,64.737 379.312,65.802 C379.765,66.867 380.559,67.582 381.692,67.944 C383.596,68.579 385.466,68.444 387.302,67.536 C389.138,66.629 390.872,65.292 392.504,63.524 C394.136,61.756 395.666,59.716 397.094,57.404 C398.522,55.092 399.804,52.871 400.936,50.74 C399.756,50.92 398.624,51.193 397.536,51.556 C396.448,51.919 395.383,52.463 394.34,53.188 L394.34,53.188 Z M450.576,45.64 L451.46,47.476 C450.236,48.246 449,48.836 447.754,49.244 C446.507,49.652 445.294,49.901 444.116,49.992 C444.026,50.355 443.901,50.695 443.742,51.012 C443.582,51.329 443.436,51.669 443.3,52.032 C442.484,53.755 441.475,55.455 440.274,57.132 C439.074,58.809 437.769,60.237 436.364,61.416 C434.959,62.596 433.519,63.422 432.046,63.898 C430.573,64.374 429.133,64.295 427.728,63.66 C426.278,62.98 425.405,61.597 425.11,59.512 C424.815,57.427 425.37,54.979 426.776,52.168 C428.091,49.493 429.473,47.238 430.924,45.402 C432.374,43.566 433.814,42.127 435.242,41.084 C436.67,40.041 438.03,39.384 439.322,39.112 C440.614,38.84 441.782,38.932 442.824,39.384 C443.277,39.611 443.708,39.962 444.116,40.438 C444.524,40.914 444.728,41.448 444.728,42.036 C444.048,41.492 443.243,41.186 442.314,41.118 C441.384,41.05 440.399,41.345 439.356,42.002 C438.313,42.659 437.226,43.702 436.092,45.13 C434.959,46.558 433.825,48.496 432.692,50.944 C431.695,53.029 431.185,54.831 431.162,56.35 C431.139,57.87 431.604,58.877 432.556,59.376 C433.009,59.648 433.586,59.603 434.29,59.24 C434.993,58.877 435.73,58.3 436.5,57.506 C437.27,56.713 438.03,55.761 438.778,54.65 C439.526,53.54 440.172,52.395 440.716,51.216 L441.328,49.72 C440.376,49.312 439.718,48.677 439.356,47.816 C438.993,46.956 438.869,46.106 438.982,45.266 C439.095,44.426 439.435,43.679 440.002,43.022 C440.569,42.365 441.352,42.036 442.348,42.036 C443.572,42.036 444.398,42.58 444.83,43.668 C445.26,44.756 445.272,46.093 444.864,47.68 C445.907,47.544 446.972,47.295 448.06,46.932 C449.148,46.569 449.987,46.139 450.576,45.64 L450.576,45.64 Z M473.9,51.556 L475.464,53.188 C473.877,56.678 472.211,59.388 470.466,61.314 C468.721,63.241 466.828,64.204 464.788,64.204 C463.745,64.204 462.918,63.954 462.306,63.456 C461.694,62.956 461.399,62.119 461.422,60.94 C461.445,59.76 461.875,58.21 462.714,56.282 C463.554,54.355 464.901,51.987 466.76,49.176 C467.757,47.726 468.46,46.513 468.868,45.538 C469.276,44.563 469.231,44.076 468.732,44.076 C468.46,44.076 468.075,44.269 467.576,44.654 C467.076,45.039 466.522,45.549 465.91,46.184 C465.298,46.819 464.675,47.567 464.04,48.428 C463.405,49.288 462.816,50.218 462.272,51.216 C461.728,52.213 461.105,53.426 460.402,54.854 C459.699,56.282 459.032,57.676 458.396,59.036 C457.671,60.623 456.946,62.276 456.22,64 L450.644,64 C451.687,61.824 452.661,59.784 453.568,57.88 C453.976,57.064 454.373,56.237 454.758,55.398 C455.143,54.558 455.528,53.743 455.914,52.95 L456.968,50.774 C457.285,50.117 457.558,49.584 457.784,49.176 C459.461,45.912 459.824,44.28 458.872,44.28 C458.419,44.28 457.784,44.78 456.968,45.776 C456.152,46.773 455.234,48.111 454.214,49.788 C453.194,51.465 452.106,53.381 450.95,55.534 C449.794,57.687 448.65,59.92 447.516,62.232 L447.516,62.164 L446.632,64 L441.056,64 L452.412,39.996 L457.988,39.996 L456.356,43.396 C457.536,42.172 458.668,41.299 459.756,40.778 C460.844,40.258 462,39.996 463.224,39.996 C464.04,39.996 464.674,40.302 465.128,40.914 C465.581,41.526 465.763,42.331 465.672,43.328 C468.12,41.108 470.252,39.996 472.064,39.996 C472.654,39.996 473.164,40.156 473.594,40.472 C474.024,40.789 474.331,41.232 474.512,41.798 C474.692,42.365 474.727,43.033 474.614,43.804 C474.501,44.574 474.194,45.391 473.696,46.252 C472.064,49.152 470.749,51.499 469.752,53.29 C468.755,55.08 468.018,56.475 467.542,57.472 C467.066,58.469 466.817,59.138 466.794,59.478 C466.771,59.818 466.896,59.988 467.168,59.988 C468.075,59.988 469.128,59.218 470.33,57.676 C471.53,56.136 472.72,54.096 473.9,51.556 L473.9,51.556 Z M492.532,51.556 L494.096,53.188 C492.872,55.318 491.444,57.211 489.812,58.866 C488.18,60.521 486.48,61.846 484.712,62.844 C482.944,63.841 481.199,64.442 479.476,64.646 C477.753,64.85 476.212,64.521 474.852,63.66 C474.127,63.207 473.549,62.572 473.118,61.756 C472.688,60.94 472.428,59.976 472.336,58.866 C472.246,57.756 472.336,56.554 472.608,55.262 C472.88,53.97 473.356,52.622 474.036,51.216 C475.351,48.541 476.766,46.343 478.286,44.62 C479.806,42.897 481.289,41.583 482.74,40.676 C484.19,39.769 485.55,39.226 486.82,39.044 C488.09,38.864 489.132,38.976 489.948,39.384 C490.628,39.747 491.161,40.279 491.546,40.982 C491.931,41.685 492.146,42.489 492.192,43.396 C492.237,44.303 492.112,45.289 491.818,46.354 C491.523,47.419 491.013,48.474 490.288,49.516 C489.291,50.966 488.191,52.134 486.99,53.018 C485.79,53.902 484.62,54.491 483.488,54.786 C482.355,55.081 481.346,55.103 480.462,54.854 C479.578,54.604 478.932,54.072 478.524,53.256 C478.116,54.752 477.969,56.078 478.082,57.234 C478.195,58.39 478.705,59.172 479.612,59.58 C480.337,59.943 481.289,60 482.468,59.75 C483.648,59.5 484.848,59.002 486.072,58.254 C487.296,57.506 488.486,56.554 489.642,55.398 C490.798,54.242 491.762,52.961 492.532,51.556 Z M486.616,47.408 C487.796,46.138 488.566,44.948 488.928,43.838 C489.291,42.728 489.291,42.058 488.928,41.832 C488.384,41.469 487.704,41.469 486.888,41.832 C486.072,42.195 485.233,42.784 484.372,43.6 C483.512,44.416 482.672,45.39 481.856,46.524 C481.04,47.657 480.36,48.814 479.816,49.992 C479.589,50.627 479.656,51.022 480.02,51.182 C480.383,51.342 480.904,51.295 481.584,51.046 C482.264,50.796 483.046,50.366 483.93,49.754 C484.814,49.142 485.71,48.36 486.616,47.408 L486.616,47.408 Z" id="Shape"></path>
            <g id="Group">
                <path d="M73.48,65.06 C72.092,65.06 71.003,66.15 71.003,67.438 C71.003,68.528 70.013,69.418 68.823,69.418 C67.636,69.418 66.646,68.528 66.646,67.438 C66.646,66.151 65.556,65.061 64.17,65.061 C62.784,65.061 61.694,66.151 61.694,67.439 C61.694,71.103 66.448,74.669 68.824,75.955 C71.201,74.668 75.954,71.103 75.954,67.439 C75.954,66.152 74.864,65.062 73.479,65.062 L73.48,65.06 Z" id="Shape"></path>
                <path d="M68.824,51.494 C59.219,51.494 51.494,59.219 51.494,68.824 C51.494,78.43 59.219,86.154 68.824,86.154 C78.43,86.154 86.154,78.43 86.154,68.824 C86.154,59.219 78.43,51.494 68.824,51.494 Z M69.617,80.114 L69.517,80.114 L69.417,80.114 C69.22,80.114 69.022,80.212 68.824,80.212 C68.626,80.212 68.428,80.212 68.23,80.112 L68.13,80.112 L68.032,80.112 C65.358,79.024 57.436,73.974 57.436,67.438 C57.436,63.972 60.506,61.1 64.17,61.1 C65.952,61.1 67.537,61.793 68.824,62.883 C70.014,61.793 71.696,61.1 73.479,61.1 C77.241,61.1 80.211,63.972 80.211,67.438 C80.211,73.974 72.289,79.024 69.616,80.113 L69.617,80.114 Z" id="Shape"></path>
                <path d="M66.25,48.127 L66.25,32.68 L76.548,32.68 L38.225,0.593 L0,32.68 L10.893,32.68 L10.893,65.358 L31.69,65.358 L31.69,40.6 L45.553,40.6 L45.751,65.358 L48.327,65.358 C50.01,56.446 57.14,49.514 66.251,48.128 L66.25,48.127 Z" id="Shape"></path>
            </g>
        </g>
    </g>
</svg>
